<?xml version="1.0" encoding="UTF-8"?>
<svg width="158px" height="158px" viewBox="0 0 158 158" version="1.1" xmlns="http://www.w3.org/2000/svg" xmlns:xlink="http://www.w3.org/1999/xlink">
    <!-- Generator: Sketch 54 (76480) - https://sketchapp.com -->
    <title>Group 2</title>
    <desc>Created with Sketch.</desc>
    <defs>
        <rect id="path-1" x="5.68434189e-14" y="0" width="150" height="150"></rect>
        <filter x="-4.7%" y="-3.3%" width="109.3%" height="109.3%" filterUnits="objectBoundingBox" id="filter-2">
            <feOffset dx="0" dy="2" in="SourceAlpha" result="shadowOffsetOuter1"></feOffset>
            <feGaussianBlur stdDeviation="2" in="shadowOffsetOuter1" result="shadowBlurOuter1"></feGaussianBlur>
            <feColorMatrix values="0 0 0 0 0   0 0 0 0 0   0 0 0 0 0  0 0 0 0.5 0" type="matrix" in="shadowBlurOuter1"></feColorMatrix>
        </filter>
    </defs>
    <g id="/home" stroke="none" stroke-width="1" fill="none" fill-rule="evenodd">
        <g id="Artboard" transform="translate(-326.000000, -585.000000)">
            <g id="Group-2" transform="translate(330.000000, 587.000000)">
                <g id="Rectangle">
                    <use fill="black" fill-opacity="1" filter="url(#filter-2)" xlink:href="#path-1"></use>
                    <use fill="#FFFFFF" fill-rule="evenodd" xlink:href="#path-1"></use>
                </g>
                <g id="africa-vector-shutterstock_371904910" transform="translate(28.000000, 25.000000)" fill="#D053D9">
                    <path d="M80.1006475,64.7538107 C80.1049353,64.7660133 80.1087906,64.7783036 80.1121951,64.7905488 C80.1492378,64.923628 80.1329268,65.051372 80.0865854,65.1803354 C80.0402439,65.3092988 79.9640244,65.4394817 79.9064024,65.5384146 C79.8484756,65.6373476 79.8089939,65.704878 79.8115854,65.7815549 C79.8141768,65.8580793 79.858689,65.94375 79.8939024,66.013872 C79.9292683,66.0838415 79.9551829,66.1382622 79.9692073,66.2553354 C79.9830793,66.3722561 79.985061,66.5518293 79.978811,66.702439 C79.972561,66.8533537 79.9580793,66.9751524 80.0035061,67.0922256 C80.0489329,67.2094512 80.1541159,67.3216463 80.1762195,67.4199695 C80.1983232,67.5184451 80.1371951,67.6030488 80.0917683,67.686128 C80.0464939,67.7690549 80.0167683,67.8507622 80.0321646,67.9403963 C80.0474085,68.0301829 80.1080793,68.1282012 80.1387195,68.2227134 C80.1693598,68.3172256 80.1704268,68.4085366 80.1449695,68.4952744 C80.1195122,68.5821646 80.0676829,68.6647866 80.0442073,68.7824695 C80.0207317,68.8998476 80.0254573,69.0525915 80.0530488,69.2032012 C80.0809451,69.3535061 80.1317073,69.5018293 80.1528963,69.6318598 C80.1739329,69.7620427 80.1655488,69.8737805 80.1823171,70.0344512 C80.1990854,70.1949695 80.2414634,70.4044207 80.2435976,70.5882622 C80.2460366,70.7719512 80.2083841,70.9303354 80.1493902,71.0954268 C80.0903963,71.2603659 80.0099085,71.4321646 79.9193598,71.5682927 C79.828811,71.7047256 79.7278963,71.8057927 79.6102134,71.9460366 C79.5222339,72.0510187 79.4247727,72.1779536 79.3297872,72.2842558 C79.30752,72.3470344 79.2689387,72.4027024 79.2237805,72.4452744 C79.1565325,72.5088633 79.0747208,72.5432608 79.0004049,72.569777 C78.9755172,72.589464 78.9534373,72.6089402 78.9349085,72.6300305 C78.8689024,72.7054878 78.8480183,72.8018293 78.8396341,72.8922256 C78.8309451,72.9829268 78.8346037,73.0675305 78.7777439,73.1260671 C78.7207317,73.1846037 78.6030488,73.2167683 78.4599085,73.2653963 C78.3167683,73.3140244 78.1481707,73.3792683 77.9643293,73.4664634 C77.7803354,73.5539634 77.5810976,73.6631098 77.2030488,73.8117378 C76.8253049,73.9605183 76.2684451,74.1483232 75.9213415,74.2771341 C75.5740854,74.4057927 75.436128,74.4753049 75.2810976,74.6114329 C75.1257622,74.7477134 74.9528963,74.9506098 74.8516768,75.082622 C74.7504573,75.2146341 74.7205793,75.2757622 74.6222561,75.3597561 C74.5240854,75.4440549 74.3574695,75.5512195 74.2135671,75.6919207 C74.0695122,75.832622 73.9481707,76.0067073 73.8564024,76.1096037 C73.7646341,76.2126524 73.702439,76.2446646 73.5934451,76.3123476 C73.4846037,76.3800305 73.3286585,76.4832317 73.2147866,76.5902439 C73.1009146,76.6971037 73.0289634,76.8074695 72.9315549,76.8910061 C72.8339939,76.9745427 72.711128,77.0310976 72.5958841,77.1012195 C72.4807927,77.1713415 72.3733232,77.254878 72.282622,77.3469512 C72.1917683,77.4391768 72.1179878,77.539939 72.0373476,77.6289634 C71.9568598,77.7179878 71.8696646,77.7954268 71.8060976,77.9442073 C71.7425305,78.0931402 71.702439,78.3137195 71.6867378,78.463872 C71.6710366,78.6140244 71.6795732,78.69375 71.7297256,78.7603659 C71.779878,78.8269817 71.8716463,78.8804878 71.9356707,78.9628049 C71.9996951,79.0452744 72.0364329,79.1567073 72.0833841,79.2545732 C72.1306402,79.3527439 72.1884146,79.4375 72.232622,79.5810976 C72.2768293,79.7245427 72.3073171,79.9269817 72.3376524,80.0893293 C72.3678354,80.2516768 72.3980183,80.3739329 72.4224085,80.5754573 C72.4469512,80.7769817 72.4658537,81.0577744 72.5010671,81.1925305 C72.5364329,81.3271341 72.5884146,81.3157012 72.6329268,81.3365854 C72.6775915,81.3577744 72.7150915,81.4117378 72.7176829,81.5155488 C72.7202744,81.6196646 72.6881098,81.7740854 72.6881098,81.9300305 C72.6881098,82.0859756 72.7202744,82.24375 72.7219512,82.3728659 C72.723628,82.5022866 72.6948171,82.6030488 72.6330793,82.7498476 C72.5710366,82.8967988 72.4759146,83.0896341 72.4182927,83.227439 C72.3608232,83.3652439 72.3407012,83.4477134 72.3469512,83.5283537 C72.3532012,83.6091463 72.3858232,83.6878049 72.3972561,83.7775915 C72.4088415,83.8672256 72.3990854,83.9681402 72.3574695,84.0650915 C72.3157012,84.1620427 72.2417683,84.2551829 72.1553354,84.3544207 C72.06875,84.453811 71.9696646,84.5592988 71.836128,84.6477134 C71.7027439,84.7359756 71.535061,84.8070122 71.3484756,84.882622 C71.1620427,84.9582317 70.9570122,85.0384146 70.7390244,85.1012195 C70.5210366,85.1641768 70.2902439,85.2097561 70.0478659,85.2596037 C69.8053354,85.3094512 69.5510671,85.3635671 69.3893293,85.4143293 C69.2275915,85.4652439 69.1583841,85.5131098 69.0396341,85.6184451 C68.921189,85.7239329 68.7532012,85.8871951 68.6379573,86.0056402 C68.5227134,86.1242378 68.4603659,86.1981707 68.4120427,86.2678354 C68.4036172,86.2799819 68.3956227,86.2920079 68.3878208,86.3037204 C68.3691792,86.369021 68.3597374,86.4453054 68.3627625,86.5237343 C68.3692777,86.5397372 68.3729838,86.5592614 68.3789634,86.5841463 C68.3942073,86.6467988 68.4240854,86.74375 68.4612805,86.8160061 C68.4987805,86.8882622 68.5434451,86.9358232 68.6150915,86.9760671 C68.6652268,87.004062 68.7285182,87.0284148 68.7826999,87.0509422 C68.8221139,87.0597065 68.8577241,87.067933 68.8846037,87.0814024 C68.9536585,87.1158537 68.9652439,87.185061 68.942378,87.2772866 C68.9360423,87.3025047 68.9271306,87.3294211 68.9175846,87.357696 C68.9032951,87.4304598 68.8841093,87.5177699 68.8801829,87.5916159 C68.8770256,87.6532475 68.8846455,87.7052528 68.8889125,87.7475451 C68.9095987,87.8225165 68.9374695,87.8967481 68.9480183,87.9655488 C68.9652439,88.0778963 68.9364329,88.1757622 68.8817073,88.2852134 C68.8547523,88.3391234 68.8215473,88.3958071 68.7827298,88.4652649 C68.7679269,88.498249 68.7520573,88.5333023 68.7352134,88.5708841 C68.6501524,88.7608232 68.5403963,89.0152439 68.4580793,89.2452744 C68.3971428,89.4154451 68.3513263,89.57225 68.3031294,89.7209456 C68.2576875,89.919881 68.2252957,90.0940978 68.1588415,90.2291159 C68.072561,90.404878 67.9283537,90.5143293 67.8045732,90.5862805 C67.712559,90.6398139 67.6318048,90.6725921 67.5538882,90.7024579 C67.4403014,90.7596879 67.3165953,90.8226769 67.2169207,90.8948171 C67.0791159,90.9945122 66.9871951,91.1117378 66.9286585,91.1919207 C66.913588,91.2125642 66.9007202,91.2307423 66.8881691,91.2477739 C66.8733547,91.2849822 66.8532685,91.3222977 66.8196646,91.3582317 C66.7567278,91.4255328 66.6463741,91.4879018 66.5391258,91.550228 C66.4705343,91.6000193 66.4017851,91.6498312 66.3489329,91.691311 C66.2385671,91.7782012 66.1980183,91.828811 66.1467988,91.9495427 C66.1339549,91.9797659 66.120463,92.0143723 66.1066162,92.0513203 C66.0964927,92.1038031 66.0864668,92.1603342 66.0679878,92.2222561 C66.0277439,92.3574695 65.9469512,92.5189024 65.8376524,92.6628049 C65.8122298,92.6962651 65.7852527,92.7287959 65.7575159,92.7607891 C65.6557121,92.8965428 65.5109111,93.0832147 65.4044207,93.2317073 C65.3663987,93.2847966 65.33324,93.3330226 65.3038489,93.3790217 C65.2834921,93.4164694 65.2639259,93.451747 65.2443598,93.4835366 C65.2385128,93.4930283 65.2326668,93.502211 65.2268409,93.5111335 C65.2031508,93.5565784 65.1823048,93.6024183 65.1631098,93.6515244 C65.1068598,93.7957317 65.0646341,93.9679878 65.0307927,94.0958841 C65.0281362,94.1058223 65.0255295,94.1154939 65.0229331,94.1249075 C65.0228019,94.1300637 65.0226786,94.1351775 65.022561,94.1402439 C65.0196646,94.2583841 65.0196646,94.3504573 64.9448171,94.3908537 C64.8929121,94.4188675 64.804939,94.421883 64.7059609,94.429742 C64.6161546,94.457767 64.5094084,94.4863599 64.3977134,94.5282012 C64.3087821,94.5615152 64.216779,94.603293 64.1226119,94.6625225 C64.107038,94.6749426 64.0911759,94.6880325 64.075,94.7018293 C63.8792683,94.8689024 63.6371951,95.1396341 63.4702744,95.3902439 C63.3032012,95.6407012 63.2109756,95.871189 63.0353659,96.0814024 C62.8596037,96.2916159 62.6004573,96.4817073 62.4016768,96.5737805 C62.3010543,96.6205009 62.2159626,96.6420667 62.1415067,96.657206 C62.0089691,96.717692 61.8953447,96.7687298 61.7932927,96.8528963 C61.7030934,96.9274038 61.6220231,97.0278801 61.5412286,97.1292525 C61.471023,97.2378917 61.3860226,97.3600997 61.2612805,97.4810976 C61.0682927,97.6682927 60.7803354,97.8525915 60.4347561,97.9849085 C60.0891768,98.117378 59.6859756,98.1981707 59.3922256,98.2557927 C59.3396478,98.2661063 59.2905765,98.2756826 59.2447302,98.2846857 C59.2319579,98.2878072 59.2194307,98.290879 59.2071646,98.2939024 C58.9469512,98.3580793 58.8042683,98.4007622 58.6594512,98.4658537 C58.6337912,98.4773481 58.6080786,98.4895541 58.5822112,98.5021192 C58.5721481,98.5117878 58.5628224,98.5217925 58.5539634,98.5321646 C58.5051829,98.5897866 58.4705793,98.6588415 58.389939,98.6878049 C58.3106172,98.7161448 58.1867518,98.7053985 58.056645,98.6967698 C57.9316397,98.7177876 57.8036471,98.7270741 57.6911585,98.7483232 C57.6382694,98.7583139 57.5887902,98.7709665 57.5412164,98.7833599 C57.4666975,98.8243615 57.3879796,98.868612 57.28125,98.883689 C57.1170732,98.9067073 56.8865854,98.8605183 56.6705793,98.7971037 C56.4845337,98.7426161 56.3092312,98.6752369 56.157431,98.6281792 C56.0500099,98.6147178 55.9458166,98.6045328 55.8536585,98.5995427 C55.6429604,98.5881208 55.4954125,98.6037217 55.3345051,98.6219488 C55.3093477,98.6284451 55.2842724,98.6351067 55.2592988,98.6417683 C55.1297256,98.6762195 55.0030488,98.7108232 54.827439,98.7137195 C54.6763082,98.7162121 54.4887097,98.6952209 54.3328533,98.6800897 C54.2405224,98.6790335 54.1706008,98.6768926 54.1140244,98.6800305 C54.023628,98.685061 53.9675305,98.7036585 53.9030488,98.757622 C53.8828926,98.7744903 53.8619022,98.7948142 53.8387322,98.8168944 C53.8016162,98.8757072 53.7619077,98.9421883 53.6926829,98.9900915 C53.5803354,99.0679878 53.3902439,99.0966463 53.1570122,99.1370427 C52.9623022,99.170767 52.7374193,99.2123532 52.5511909,99.2402485 C52.3607037,99.2786292 52.1655648,99.3225854 51.9967988,99.3753049 C51.7365107,99.4565757 51.5389958,99.558771 51.362982,99.6491769 C51.3143494,99.6800849 51.2665708,99.7113134 51.2216463,99.7419207 C51.0862805,99.8339939 50.9768293,99.9204268 50.8530488,99.9521341 C50.7291159,99.9838415 50.5908537,99.9606707 50.4527439,99.9030488 C50.3144817,99.8454268 50.1760671,99.7533537 50.063872,99.6382622 C50.0456059,99.619475 50.0280187,99.6000858 50.0109386,99.5805273 C49.8707568,99.4836475 49.7482011,99.3884545 49.6483232,99.3300305 C49.6084388,99.3067517 49.5721708,99.2893362 49.5389353,99.27362 C49.511715,99.2721731 49.4857825,99.2706005 49.4620427,99.2666159 C49.3754573,99.2522866 49.3178354,99.2060976 49.2891768,99.1397866 C49.2680065,99.0914291 49.2623103,99.0322396 49.2529793,98.9769221 C49.2379365,98.9476496 49.2242253,98.920759 49.2117378,98.8996951 C49.1713415,98.8315549 49.1439024,98.8243902 49.0907012,98.8425305 C49.0735879,98.8483333 49.0538094,98.8567695 49.032461,98.8655362 C48.9851612,98.8983703 48.9326721,98.9364904 48.8801829,98.9469512 C48.7939024,98.9641768 48.7074695,98.9065549 48.6871951,98.817378 C48.6686242,98.7349345 48.7065355,98.6256133 48.7350194,98.5458567 C48.7380169,98.509256 48.7405963,98.4731875 48.7405488,98.439939 C48.7402491,98.3350544 48.7138816,98.2581521 48.605424,98.0175697 C48.5746584,97.9569974 48.5423368,97.8932853 48.5114329,97.8295732 C48.4251524,97.6509146 48.3503049,97.4724085 48.2696646,97.311128 C48.1890244,97.1498476 48.1025915,97.0057927 48.0882622,96.9079268 C48.0737805,96.8099085 48.1314024,96.7580793 48.2321646,96.7408537 C48.2749083,96.7335465 48.3254425,96.7324388 48.3762849,96.7316076 C48.3833778,96.7296867 48.3904767,96.7277406 48.397561,96.7257622 C48.4887195,96.7001524 48.5778963,96.6689024 48.6315549,96.5599085 C48.6853659,96.4506098 48.703811,96.2631098 48.7053354,96.0579268 C48.7063648,95.931864 48.7009591,95.7990787 48.6930337,95.680489 C48.6919619,95.6693974 48.6909744,95.6580661 48.6900915,95.6464939 C48.6888348,95.6302561 48.6877825,95.6135429 48.6868356,95.5964757 C48.6834032,95.5540005 48.6797394,95.514382 48.6760671,95.478811 C48.6608232,95.3280488 48.645122,95.2496951 48.5474085,95.0980183 C48.506387,95.0343775 48.4509028,94.9578273 48.3886346,94.8720164 C48.3670152,94.8496378 48.3445775,94.8257816 48.3214939,94.7998476 C48.1832317,94.6442073 48.0219512,94.4137195 47.895122,94.1661585 C47.826521,94.0320112 47.7680683,93.8928121 47.7128881,93.7577126 C47.7038333,93.7407281 47.6948134,93.7238727 47.6858232,93.7071646 C47.5556402,93.4650915 47.4315549,93.2539634 47.329878,93.0044207 C47.2850899,92.894894 47.2446239,92.7778992 47.2083637,92.6607577 C47.1463363,92.5010651 47.0968703,92.3351748 47.06875,92.1789634 C47.0614058,92.1383612 47.0554999,92.0984197 47.0501884,92.0590737 C47.011199,91.8910328 46.9769079,91.7399869 46.9242378,91.5742378 C46.9128928,91.5385892 46.9006989,91.5022534 46.887752,91.4650868 C46.808626,91.3314026 46.7028971,91.1997496 46.6166159,91.0615854 C46.501372,90.8771341 46.4207317,90.6814024 46.2882622,90.5143293 C46.1557927,90.3472561 45.9714939,90.2089939 45.8102134,90.0333841 C45.6489329,89.8577744 45.5105183,89.6445122 45.3983232,89.4890244 C45.3908303,89.4786544 45.3834528,89.4685407 45.3761811,89.4586705 C45.2056737,89.2830103 45.0975556,89.1669918 45.0239329,89.0862805 C45.0130686,89.0743884 45.0029554,89.0632631 44.9935065,89.0527011 C44.9408957,89.0056761 44.8924275,88.9566539 44.8568598,88.8957317 C44.7963415,88.7922256 44.7733232,88.653811 44.7646341,88.5414634 C44.761921,88.5058044 44.7606399,88.4727478 44.7587695,88.4401744 C44.7526758,88.415789 44.7463616,88.3910733 44.7397866,88.3661585 C44.712997,88.2648789 44.6819511,88.1602683 44.6564871,88.0621648 C44.6172227,87.9704365 44.5768322,87.8742138 44.5660061,87.7926829 C44.5502632,87.6753018 44.5960702,87.5886957 44.6348625,87.5177916 C44.6350829,87.516685 44.6353016,87.5155817 44.6355183,87.5144817 C44.651372,87.433689 44.65625,87.371189 44.6135671,87.2829268 C44.6101149,87.2758136 44.6063548,87.2685311 44.6023394,87.2610987 C44.5459844,87.223223 44.4732196,87.185461 44.4306402,87.1448171 C44.370122,87.0871951 44.370122,87.0237805 44.3902439,86.9661585 C44.3989343,86.9414595 44.4112937,86.9178248 44.4230363,86.894126 C44.4123771,86.8216201 44.4169941,86.7495361 44.4030488,86.663872 C44.3990577,86.6393234 44.3935461,86.6136559 44.3871405,86.586414 C44.3443859,86.5130206 44.2891407,86.4318841 44.2751524,86.2577744 C44.2640471,86.1208861 44.2784007,85.9262668 44.2934654,85.7495352 C44.2899865,85.6385391 44.2839382,85.5284172 44.2689024,85.429878 C44.2393017,85.2367145 44.17527,85.0880593 44.1214074,84.9382671 C44.0987423,84.9126011 44.0779525,84.8871495 44.0618902,84.8609756 C44.0073171,84.7716463 44.0073171,84.6737805 44.0102134,84.5844512 C44.0108415,84.5650796 44.0115986,84.5461166 44.0119298,84.5267678 C43.9944454,84.4408674 43.9778074,84.3539788 43.9583841,84.2676829 C43.9477325,84.2204849 43.93624,84.1734551 43.9246297,84.1249216 C43.8771595,83.9935091 43.8198152,83.8374071 43.7969512,83.6858232 C43.7653963,83.4756098 43.7998476,83.2739329 43.8170732,83.0666159 C43.8190352,83.043209 43.8207757,83.0197282 43.822332,82.9961447 C43.8231119,82.8158109 43.8252944,82.6289282 43.8231707,82.4516768 C43.8185976,82.0699695 43.7942073,81.732622 43.7375,81.4806402 C43.6807927,81.2283537 43.5920732,81.0615854 43.4746951,80.8893293 C43.4109691,80.7958921 43.3388408,80.7008822 43.2662872,80.6007626 C43.1902699,80.5225121 43.1203489,80.4566223 43.0655488,80.3623476 C43.0195888,80.2832808 42.9841404,80.1841862 42.9457747,80.0794064 C42.8797548,79.9513203 42.8185902,79.8247882 42.7580793,79.7166159 C42.6907693,79.5964701 42.6241986,79.4989733 42.5555112,79.3882022 C42.4754422,79.297332 42.3974404,79.2191457 42.3310976,79.0865854 C42.2575524,78.9394951 42.1983351,78.7252038 42.1295083,78.5181825 C42.1040661,78.4609907 42.0772798,78.4008821 42.0489329,78.3376524 C41.872561,77.94375 41.6358232,77.4286585 41.4342988,77.0550305 C41.241621,76.6980957 41.0809936,76.4704768 40.9276353,76.2482683 C40.9181281,76.2378581 40.9088007,76.2277513 40.8996951,76.2179878 C40.7817073,76.091311 40.7010671,76.0221037 40.6030488,75.8522866 C40.5051829,75.6824695 40.389939,75.4115854 40.3036585,75.1783537 C40.2172256,74.945122 40.1596037,74.7490854 40.1307927,74.5533537 C40.1019817,74.3574695 40.1019817,74.1617378 40.1307927,73.997561 C40.1434101,73.9256616 40.1615532,73.8598726 40.1794091,73.7919355 C40.1865255,73.6998582 40.2010302,73.5776107 40.2030488,73.4243902 C40.2060976,73.1814024 40.1777439,72.8606707 40.1614329,72.6547256 C40.1592968,72.6275199 40.1573658,72.6023177 40.1557642,72.5787265 C40.1352244,72.4534483 40.1218869,72.3472007 40.1364329,72.2666159 C40.1566593,72.156036 40.2295059,72.0936622 40.3165425,71.9838755 C40.3712621,71.8841769 40.4322302,71.7771416 40.4835366,71.6737805 C40.5622341,71.5151099 40.6183065,71.3648704 40.6821147,71.2116319 C40.7118539,71.0877 40.7301173,70.9801186 40.7730183,70.8900915 C40.8096502,70.8134136 40.8641549,70.7493583 40.9148955,70.6839293 C40.936689,70.6291514 40.9574954,70.5724287 40.9765244,70.5132622 C41.0456547,70.2978728 41.0913649,70.0498293 41.1421195,69.7647427 C41.157915,69.6540355 41.1753583,69.5352564 41.1934451,69.4097561 C41.2309451,69.1506098 41.2713415,68.8625 41.3346037,68.6926829 C41.3980183,68.5227134 41.4842988,68.4708841 41.5823171,68.4391768 C41.615419,68.4284522 41.6498464,68.4200471 41.6833695,68.4102688 C41.6878024,68.4060219 41.692179,68.4017894 41.6964939,68.397561 C41.7954268,68.3007622 41.8620427,68.2057927 41.9178354,68.0876524 C41.9292404,68.0635025 41.9402058,68.0383717 41.951599,68.0123927 C41.9600578,67.9765771 41.9691284,67.9399648 41.9797256,67.9035061 C42.0257622,67.745122 42.1007622,67.5896341 42.198628,67.4974085 C42.2964939,67.4053354 42.4175305,67.376372 42.5125,67.3419207 C42.5265606,67.3367975 42.5400566,67.3315473 42.5530714,67.3261429 C42.6049851,67.2815836 42.6564711,67.2356675 42.7051829,67.1881098 C42.8917683,67.0059451 43.0376524,66.7995427 43.121189,66.616311 C43.204878,66.4332317 43.2262195,66.2731707 43.216311,65.99375 C43.2064024,65.7143293 43.1650915,65.3157012 43.010061,64.785061 C42.8547256,64.2545732 42.5858232,63.5920732 42.4358232,63.1765244 C42.4254053,63.1476447 42.4155636,63.1199564 42.4062796,63.0933953 C42.3739567,63.0329194 42.3438028,62.9779606 42.3167683,62.9297256 C42.1582317,62.647561 42.1064024,62.5957317 42.1266768,62.5352134 C42.1466463,62.4746951 42.238872,62.4056402 42.3512195,62.3422256 C42.3655952,62.3341112 42.3803004,62.3260942 42.3951239,62.3180471 C42.4278745,62.2844268 42.4628573,62.2512403 42.4935976,62.2118902 C42.5670732,62.1178354 42.6164634,61.988872 42.5637195,61.7178354 C42.5109756,61.4469512 42.35625,61.0339939 42.2,60.6463415 C42.06753,60.3178779 41.9339665,60.0075675 41.7641127,59.5834228 C41.6882618,59.4785246 41.6020042,59.3661269 41.5217988,59.2434451 C41.3748476,59.01875 41.2481707,58.7594512 41.2193598,58.6097561 C41.1932361,58.4738853 41.2476985,58.4280002 41.3332006,58.4057359 C41.296145,58.2821319 41.2661808,58.16648 41.2474064,58.0658421 C41.2467942,58.0654398 41.2461921,58.065011 41.2455985,58.0645545 C41.2068244,58.0526023 41.1731335,58.0353325 41.1445122,58.0108232 C41.063872,57.9416159 41.023628,57.814939 41.0091463,57.7169207 C40.9958366,57.626975 41.0045455,57.561237 40.9837938,57.4752095 C40.9156676,57.3238368 40.8621077,57.2148217 40.7945122,57.1123476 C40.7798133,57.0900329 40.7644443,57.068021 40.7486808,57.0460524 C40.6968792,56.999943 40.6092274,56.9174152 40.5483232,56.8010671 C40.5116809,56.7309065 40.4847183,56.6483541 40.4566872,56.5637178 C40.4245712,56.495609 40.3902821,56.4238911 40.3487805,56.3498476 C40.2603659,56.1925305 40.1393293,56.0245427 40.03125,55.8871951 C39.9231707,55.75 39.8277439,55.6434451 39.7564024,55.5658537 C39.7362149,55.5437641 39.7179643,55.5239915 39.7026759,55.5056492 C39.6695344,55.4706232 39.6350794,55.434804 39.5993244,55.3983545 C39.5901011,55.3916105 39.5802374,55.3841985 39.5696646,55.3760671 C39.3980183,55.2439024 39.0394817,54.9221037 38.746189,54.675 C38.5986763,54.5506415 38.4676678,54.4451396 38.3543855,54.3552553 C38.2150558,54.2514593 38.0905571,54.1584473 37.9966463,54.0824695 C37.7403963,53.8751524 37.7115854,53.7945122 37.720122,53.7368902 C37.728811,53.6792683 37.7748476,53.6446646 37.8382622,53.6301829 C37.8671553,53.6236542 37.8996244,53.6213026 37.931041,53.617952 C37.9538421,53.6091066 37.9754532,53.6010386 37.9926829,53.5929878 C38.0440549,53.5692073 38.0568598,53.5455793 37.9748476,53.5105183 C37.9141987,53.4846385 37.8018891,53.4525294 37.6831017,53.4167661 C37.6347025,53.4082241 37.5856547,53.3973696 37.5387195,53.3824695 C37.4792875,53.3636905 37.4232489,53.3383953 37.3709641,53.3093106 C37.287163,53.2728343 37.2126135,53.2294888 37.1518293,53.1719512 C37.1220844,53.1437069 37.0956487,53.112064 37.0725035,53.0797375 C36.9905715,52.9987256 36.9389672,52.9281298 36.9339939,52.8786585 C36.9318927,52.8577569 36.9381355,52.840626 36.9494191,52.8272806 C36.9478097,52.8077619 36.9598879,52.806225 36.9833114,52.8030312 C37.0000863,52.7957304 37.0192351,52.7920732 37.0376524,52.7920732 C37.0386954,52.7920732 37.0397359,52.7920849 37.040774,52.7921078 C37.0773501,52.783248 37.1162818,52.7704103 37.133689,52.7568598 C37.1591463,52.7370427 37.1382622,52.7155488 37.0867378,52.6876524 C37.072021,52.6796409 37.054792,52.671107 37.0366741,52.6621539 C37.0020277,52.6489951 36.9663091,52.6341907 36.9368902,52.6137195 C36.8705793,52.5675305 36.836128,52.4926829 36.8678354,52.4493902 C36.8921657,52.416127 36.9560097,52.4016237 37.0195366,52.3875022 C37.0369278,52.3814106 37.0548216,52.3748711 37.0724085,52.3675305 C37.125,52.3458841 37.175,52.3169207 37.1978659,52.2932927 C37.2205793,52.2696646 37.216311,52.2510671 37.1841463,52.2327744 C37.1518293,52.2147866 37.091311,52.1972561 36.9948171,52.1849085 C36.9704715,52.1817981 36.9438141,52.1790166 36.9160997,52.1763642 C36.8401936,52.1752244 36.7600688,52.174659 36.6920732,52.1672256 C36.5596037,52.1528963 36.4731707,52.1125 36.4557927,52.0432927 C36.4439163,51.9956822 36.4648655,51.9343763 36.4809204,51.8697666 C36.4846374,51.8401188 36.4901267,51.8128239 36.4958661,51.7860934 C36.4959859,51.784529 36.4960937,51.7829653 36.496189,51.7814024 C36.5019817,51.6862805 36.4615854,51.5940549 36.4242378,51.5135671 C36.3867378,51.4327744 36.3522866,51.3637195 36.3782012,51.3089939 C36.4041159,51.2542683 36.4903963,51.213872 36.5394817,51.1678354 C36.5884146,51.1216463 36.5998476,51.0699695 36.6603659,51.0239329 C36.6827593,51.0068417 36.7118525,50.9905437 36.742394,50.9711077 C36.7511017,50.9615402 36.7595561,50.952015 36.7676829,50.9425305 C36.8306402,50.8689024 36.8740854,50.7978659 36.901372,50.7051829 C36.919893,50.6423768 36.9310398,50.5696682 36.9439173,50.4956852 C36.9463126,50.4572948 36.9484244,50.4196703 36.9512195,50.3844512 C36.9628049,50.2405488 36.9858232,50.1367378 37.0635671,50.0792683 C37.141311,50.0216463 37.2737805,50.010061 37.377439,50.0158537 C37.4539748,50.0201307 37.5148872,50.0337982 37.5739206,50.0453211 C37.5782407,50.0453769 37.5824653,50.0454129 37.5865854,50.0454268 C37.6769817,50.0455793 37.717378,50.035061 37.6760671,49.9990854 C37.6347561,49.9631098 37.5118902,49.9015244 37.3981707,49.8458841 C37.3915023,49.8426347 37.3848657,49.8394041 37.3782685,49.836187 C37.2396584,49.7843261 37.1340052,49.7605441 37.0751524,49.6903963 C37.0146341,49.6184451 37.0030488,49.4974085 37.0405488,49.413872 C37.0778963,49.3304878 37.1643293,49.2842988 37.2391768,49.2527439 C37.2406683,49.2521121 37.2421552,49.251486 37.2436375,49.2508648 C37.304258,49.2029928 37.3614541,49.1571789 37.3928354,49.0727134 C37.4254573,48.9849085 37.4303354,48.8553354 37.4150915,48.7596037 C37.4048722,48.6954264 37.3856782,48.6465951 37.3773043,48.6134313 C37.3199746,48.5219122 37.2500157,48.4380973 37.2333841,48.3512195 C37.2105183,48.2303354 37.2911585,48.1035061 37.3716463,48.0199695 C37.4046737,47.9858205 37.4376756,47.9589061 37.4694752,47.9350818 C37.5303493,47.8618636 37.5949069,47.793874 37.6347561,47.7391768 C37.6903963,47.6629573 37.6981707,47.6125 37.6978659,47.5400915 C37.6974085,47.4676829 37.6891768,47.3731707 37.6983232,47.275 C37.7074695,47.1766768 37.7342988,47.0743902 37.8157012,47.0496951 C37.827062,47.0462486 37.8394917,47.0443134 37.8529012,47.0436073 C37.9070644,46.8646415 37.9898389,46.6945688 38.023628,46.5420732 C38.0582317,46.3852134 38.0408537,46.2467988 38.0321646,46.0824695 C38.023628,45.9182927 38.023628,45.7280488 37.9890244,45.5809451 C37.9544207,45.4339939 37.8852134,45.3301829 37.8376524,45.2091463 C37.7900915,45.0879573 37.7641768,44.9496951 37.7045732,44.8580793 C37.6448171,44.766311 37.5515244,44.7213415 37.4434451,44.6608232 C37.3353659,44.6003049 37.2123476,44.5242378 37.1088415,44.5385671 C37.0050305,44.5530488 36.9205793,44.6579268 36.8815549,44.6621951 C36.8426829,44.6664634 36.8493902,44.5702744 36.7946646,44.5213415 C36.7400915,44.4724085 36.6239329,44.4707317 36.632622,44.4448171 C36.6411585,44.41875 36.7746951,44.3685976 36.777439,44.2821646 C36.7803354,44.1957317 36.6525915,44.0731707 36.5455793,43.9945122 C36.4781752,43.9450634 36.4189963,43.9130928 36.3690328,43.8909818 C36.2832983,43.9192957 36.19095,43.9279004 36.1036585,43.9164634 C35.9452744,43.8958841 35.8030488,43.8094512 35.7010671,43.7856707 C35.5990854,43.7618902 35.5371951,43.8007622 35.5053354,43.8466463 C35.4965847,43.8593516 35.4900982,43.8725909 35.4841998,43.8860023 C35.486717,43.8974201 35.4891895,43.9084892 35.4910061,43.9189024 C35.4996951,43.9679878 35.4939024,44.002439 35.3931402,44.039939 C35.292378,44.0772866 35.0964939,44.1176829 34.9266768,44.1176829 C34.7567073,44.1176829 34.6126524,44.0772866 34.4370427,44.0370427 C34.4292949,44.0352687 34.4214857,44.0334944 34.4136247,44.0317252 C34.2334918,44.0144894 34.0830555,44.0006203 33.9690549,44.0192073 C33.8447019,44.0394823 33.7637023,44.0985237 33.6850932,44.1544941 C33.6832615,44.1566148 33.6814223,44.1587251 33.6795732,44.1608232 C33.6161585,44.2327744 33.541311,44.2903963 33.4463415,44.3192073 C33.3512195,44.3480183 33.236128,44.3480183 33.1065549,44.3365854 C32.9768293,44.325 32.8329268,44.3019817 32.7118902,44.2875 C32.7046753,44.2866458 32.6975427,44.285822 32.6904875,44.2850279 C32.5209521,44.2765884 32.384154,44.2693418 32.2631098,44.2679878 C32.1266768,44.2666159 32.0103659,44.2727134 31.9378049,44.1942073 C31.8652439,44.1157012 31.8364329,43.9525915 31.7655488,43.7509146 C31.753698,43.7171972 31.7406754,43.6824017 31.7269983,43.6471075 C31.64118,43.4929857 31.5569704,43.3315512 31.5109756,43.2132622 C31.4504573,43.0577744 31.45625,42.9771341 31.4879573,42.9224085 C31.4994302,42.9026068 31.514276,42.8861979 31.5297794,42.8715499 C31.53023,42.8693892 31.5306704,42.8672374 31.5310976,42.8650915 C31.54375,42.8009146 31.5446646,42.7420732 31.4841463,42.6868902 C31.4679418,42.6720735 31.4473328,42.6575082 31.422925,42.6418861 C31.3497488,42.6183876 31.2626795,42.5866134 31.1797256,42.5278963 C31.0811267,42.4581053 30.9884195,42.3501726 30.8911002,42.2406966 C30.8093242,42.1670445 30.7253256,42.0913613 30.6431402,42.0248476 C30.4695122,41.8842988 30.3039634,41.7847561 30.1205793,41.7129573 C29.9371951,41.6411585 29.7358232,41.5969512 29.5339939,41.5775915 C29.3321646,41.5582317 29.129878,41.5635671 28.9644817,41.5753049 C28.922558,41.5782774 28.8830001,41.5816702 28.8454713,41.5849165 C28.7524677,41.6049636 28.6573654,41.6279848 28.5416159,41.623628 C28.4144844,41.6187085 28.2623948,41.5804747 28.1294202,41.5602832 C27.996091,41.5520379 27.9362754,41.5531552 27.8481707,41.5702744 C27.7844334,41.5827866 27.7057664,41.6037764 27.6154855,41.6249281 C27.5378416,41.6527477 27.4511724,41.6817376 27.3234756,41.6984756 C27.2548493,41.7074631 27.1743941,41.7129414 27.0920368,41.7183405 C27.0697931,41.7219807 27.0474812,41.7257134 27.0251524,41.7295732 C26.8609756,41.7580793 26.6954268,41.7934451 26.6128049,41.811128 C26.6028208,41.8132425 26.5940409,41.815102 26.586311,41.8166435 C26.5136562,41.8629486 26.4295017,41.8924091 26.3406058,41.9222584 C26.3398772,41.9225626 26.3391468,41.9228668 26.3384146,41.9231707 C26.1858232,41.9864329 25.9554878,42.0440549 25.7452744,42.1246951 C25.5349085,42.2053354 25.3448171,42.3089939 25.1634146,42.3722561 C24.9826807,42.435437 24.8104205,42.4585188 24.6154268,42.4929106 C24.4236434,42.5420491 24.2417317,42.5810543 24.1094512,42.6120427 C23.9181402,42.6568598 23.8307927,42.685061 23.6733232,42.7547256 C23.5158537,42.8243902 23.2884146,42.9352134 23.1443598,43.0140244 C23.0792619,43.0494948 23.0311511,43.0784556 22.9868317,43.1038842 C22.9003962,43.1731203 22.8156443,43.2413343 22.6693598,43.2795732 C22.5682472,43.306004 22.4377367,43.3181584 22.3082172,43.3319155 C22.1494815,43.3703326 21.998689,43.4057314 21.8471037,43.46875 C21.7861918,43.4940729 21.7251305,43.5238343 21.6647502,43.5537309 C21.6316629,43.5777315 21.5986105,43.6019263 21.5634146,43.6251524 C21.4280488,43.7144817 21.261128,43.7893293 21.1286585,43.7835366 C21.0162242,43.7786257 20.9287701,43.7158655 20.8415889,43.663434 C20.7244761,43.6271678 20.5926798,43.5753185 20.4670149,43.5190182 C20.4610351,43.5169926 20.4550084,43.5149233 20.4489329,43.5128049 C20.3164634,43.4667683 20.1608232,43.397561 20.0457317,43.3371951 C19.9304878,43.2766768 19.8556402,43.2248476 19.8067073,43.15 C19.7788352,43.1074128 19.7593679,43.0574529 19.7393186,43.0127354 C19.6728253,43.0383275 19.6009563,43.0633285 19.5484756,43.0876524 C19.4957363,43.1121703 19.462613,43.1360403 19.4379299,43.1579507 C19.4242484,43.1869883 19.4084572,43.2133333 19.3890244,43.2335366 C19.3199695,43.3054878 19.2047256,43.2996951 19.0492378,43.2737805 C18.9887154,43.2636934 18.9220725,43.2505577 18.8501633,43.237259 C18.7426323,43.2249029 18.6290457,43.2111858 18.5291159,43.2019817 C18.3320122,43.1838415 18.1879573,43.1832317 17.9859756,43.1993902 C17.859999,43.2096585 17.71137,43.2264498 17.5553265,43.242034 C17.4517707,43.2595492 17.3568057,43.2757828 17.2637195,43.2824695 C17.1726783,43.2890032 17.0835279,43.2863251 16.9926044,43.2827473 C16.8306727,43.2909301 16.6691969,43.2996552 16.5057927,43.3208841 C16.25,43.3539634 15.9891768,43.4175305 15.6954268,43.5118902 C15.4016768,43.6064024 15.0748476,43.7315549 14.7516768,43.8631098 C14.4282012,43.9945122 14.1085366,44.1323171 13.8902439,44.223628 C13.8802625,44.2278102 13.8704927,44.2318952 13.8609305,44.2358806 C13.7775495,44.2755788 13.6978526,44.313177 13.6291159,44.3422256 C13.4792683,44.4056402 13.3814024,44.4286585 13.2373476,44.4056402 C13.0934451,44.382622 12.9033537,44.3134146 12.7016768,44.2387195 C12.5,44.1637195 12.2870427,44.0830793 12.1228659,44.0283537 C11.958689,43.973628 11.8434451,43.9448171 11.7426829,43.8958841 C11.6419207,43.8469512 11.5554878,43.7777439 11.4864329,43.6885671 C11.4516584,43.6436819 11.4212713,43.5937163 11.3853898,43.5419581 C11.3315983,43.4776028 11.2896633,43.4306579 11.2,43.3626524 C11.1053354,43.2911585 10.9573171,43.1960366 10.813872,43.1091463 C10.7883176,43.0936671 10.762894,43.0784491 10.7377172,43.0634071 C10.607664,42.9959413 10.4894707,42.9354974 10.3919207,42.8647866 C10.2768293,42.7814024 10.1903963,42.6833841 10.1213415,42.5882622 C10.0901962,42.5455232 10.0625705,42.50334 10.0366164,42.4625322 C9.97404873,42.3817445 9.91060779,42.2994715 9.84420732,42.2317073 C9.75907705,42.1446942 9.66908218,42.0815296 9.52157049,41.9860023 C9.46612238,41.9562339 9.40845643,41.924369 9.35228659,41.8885671 C9.29359866,41.851094 9.23654397,41.8092943 9.17947031,41.7669321 C9.05297844,41.686261 8.92347637,41.6037849 8.81981707,41.5373476 C8.79651526,41.5224076 8.77452363,41.5082831 8.75367643,41.4948421 C8.67672589,41.4534493 8.59956798,41.4109885 8.5257622,41.358689 C8.3875,41.2606707 8.26067073,41.1282012 8.11966463,40.9928354 C7.9785061,40.8574695 7.82301829,40.7192073 7.68185976,40.6300305 C7.61946471,40.5905451 7.55989914,40.5606203 7.50116194,40.537294 C7.49965531,40.5369046 7.49815009,40.536516 7.49664634,40.536128 C7.38712777,40.5079828 7.28542166,40.4834648 7.19032685,40.459104 C7.08302229,40.4413926 6.97690706,40.4246111 6.89573171,40.3794207 C6.79207317,40.3217988 6.72865854,40.2181402 6.69984756,40.1115854 C6.69285207,40.0857131 6.68789663,40.0596702 6.68337304,40.0340347 C6.65967562,39.9791605 6.6365926,39.9260587 6.6160061,39.8867378 C6.57219029,39.8031997 6.53953287,39.7820883 6.45564599,39.7412195 C6.39262189,39.7192402 6.32251631,39.702994 6.25914634,39.6882622 C6.13536585,39.6594512 6.03734756,39.6364329 5.98551829,39.5759146 C5.94483865,39.5284152 5.93261298,39.4579084 5.91250426,39.3921076 C5.86667942,39.3374304 5.83069118,39.2796718 5.77469512,39.2152439 C5.75168036,39.1887569 5.72525967,39.1611259 5.69783606,39.1327647 C5.61337031,39.0715896 5.51090095,39.0045639 5.45853659,38.9164634 C5.40381098,38.8242378 5.40381098,38.7089939 5.44115854,38.622561 C5.46324397,38.5717465 5.49833651,38.5308725 5.53285907,38.4934928 C5.54747061,38.4625382 5.56110508,38.430263 5.57027439,38.3943598 C5.59390244,38.3025915 5.58795732,38.1870427 5.5679878,38.0858232 C5.56171556,38.0540789 5.55404472,38.0237482 5.54503197,37.9944817 C5.53547392,37.9739769 5.52657448,37.9537965 5.51905488,37.9342988 C5.51137973,37.9144854 5.50512197,37.8953845 5.49943327,37.876838 C5.48951418,37.855705 5.47882002,37.8349248 5.46737805,37.8143293 C5.42338975,37.7355528 5.36869211,37.6594876 5.28960664,37.5568591 C5.2535186,37.5225892 5.21609101,37.4857707 5.1820122,37.4446646 C5.13859978,37.3922047 5.10060025,37.3327203 5.06315181,37.276344 C5.03373782,37.2423406 5.0048391,37.2102427 4.97759146,37.1818598 C4.90848423,37.1097575 4.85003189,37.0617095 4.7979466,37.0195658 C4.77335413,37.0046749 4.75099437,36.990632 4.73277439,36.9753049 C4.7146804,36.9600334 4.70066913,36.943512 4.6864816,36.9258455 C4.64027441,36.8853381 4.59133788,36.8428311 4.52103659,36.7952744 C4.47428623,36.7635276 4.41805852,36.7295408 4.35877692,36.693068 C4.28709974,36.6565345 4.21084744,36.6173858 4.14237805,36.575 C3.99832317,36.4856707 3.88887195,36.3820122 3.8285061,36.272561 C3.7679878,36.1631098 3.75640244,36.0478659 3.7535061,35.9471037 C3.75297019,35.9284596 3.75273175,35.9103061 3.75246248,35.8927165 C3.74172609,35.8511057 3.73199949,35.8132981 3.72256098,35.7823171 C3.68963415,35.6742378 3.66006098,35.6490854 3.61021341,35.6260671 C3.57796627,35.6112216 3.53722257,35.5972638 3.49865564,35.5791638 C3.42563408,35.5626663 3.35667389,35.5539898 3.33307927,35.5092988 C3.31589172,35.4768447 3.32277706,35.4254139 3.32687322,35.3709279 C3.30715358,35.3108344 3.2942972,35.2453915 3.2875,35.211128 C3.28018293,35.173628 3.28018293,35.173628 3.23216463,35.1597561 C3.18414634,35.146189 3.0882622,35.1185976 2.9632622,35.1054878 C2.9332642,35.102309 2.90159345,35.0999621 2.8696312,35.0977924 C2.84875385,35.0995246 2.8283647,35.1014391 2.80884146,35.1033537 C2.69085366,35.1147866 2.60442073,35.126372 2.52957317,35.0946646 C2.45606747,35.0635258 2.39358844,34.9906326 2.30127472,34.9717133 C2.22282909,34.9778904 2.14525744,34.9882756 2.07164634,35.0053354 C1.84537045,35.0577759 1.65651819,35.1731799 1.51491687,35.2310336 C1.48255276,35.2643779 1.45289839,35.2935186 1.4179878,35.3012195 C1.3660061,35.3128049 1.3027439,35.2771341 1.27103659,35.2190549 C1.23932927,35.1608232 1.23932927,35.0801829 1.27103659,35.0375 C1.2957742,35.0041994 1.33971896,34.9940958 1.3962108,34.9789563 C1.50408352,34.8755712 1.66895957,34.7584326 1.82362,34.6633718 C1.84097153,34.6421396 1.85980114,34.6214566 1.88155488,34.6021341 C1.95929878,34.5330793 2.07454268,34.4810976 2.16661585,34.4551829 C2.20796595,34.4435639 2.24465815,34.4371543 2.27853355,34.431805 C2.33447513,34.4082688 2.37996071,34.3895813 2.4152439,34.3710366 C2.50472561,34.3242378 2.5285061,34.2783537 2.50198171,34.2446646 C2.47545732,34.2108232 2.39847561,34.1890244 2.33185976,34.1806402 C2.26509146,34.1721037 2.20868902,34.1768293 2.12820122,34.1902439 C2.11166109,34.1930319 2.0940974,34.196174 2.07592554,34.1993037 C1.9835663,34.2239229 1.9020265,34.2547523 1.83841463,34.2480183 C1.75777439,34.2393293 1.70594512,34.170122 1.66554878,34.1096037 C1.66044019,34.1019408 1.65551582,34.094413 1.65066998,34.087092 C1.62896365,34.0677839 1.60576576,34.0529573 1.56112805,34.0428354 C1.50117563,34.0290736 1.40225038,34.0237153 1.31791161,34.0123909 C1.29878551,34.0150071 1.28008201,34.0169362 1.26234756,34.0175305 C1.17606707,34.0204268 1.11265244,33.9914634 1.0722561,33.9455793 C1.0320122,33.8993902 1.01463415,33.8359756 0.942682927,33.7870427 C0.870731707,33.7381098 0.743902439,33.7036585 0.663414634,33.6344512 C0.58277439,33.5653963 0.548170732,33.4615854 0.59695122,33.4041159 C0.646036585,33.3464939 0.778506098,33.3349085 0.905335366,33.3492378 C0.943663315,33.3536195 0.981460971,33.3603735 1.01865233,33.3679798 C0.973389735,33.2750305 0.893737147,33.1816682 0.817694375,33.0586623 C0.794249847,33.0512814 0.7723909,33.0435059 0.752591463,33.0353659 C0.640396341,32.9893293 0.594207317,32.9317073 0.58277439,32.8510671 C0.571189024,32.7704268 0.594207317,32.6667683 0.588414634,32.5803354 C0.58277439,32.4940549 0.548170732,32.4248476 0.530792683,32.3442073 C0.513567073,32.2635671 0.513567073,32.1714939 0.574085366,32.0966463 C0.620457253,32.0392947 0.702271902,31.9920568 0.775569229,31.94588 C0.792348253,31.9336797 0.806255878,31.9247085 0.816006098,31.9184451 C0.83902439,31.9036585 0.83902439,31.9036585 0.85472561,31.8832317 C0.865333666,31.8693996 0.883320907,31.8459888 0.913044028,31.8308617 C0.926589182,31.8092629 0.934927093,31.7847348 0.936448842,31.7551743 C0.931115382,31.7501055 0.925724639,31.7447762 0.92027439,31.7391768 C0.747256098,31.5618902 0.514481707,31.1137195 0.362957317,30.8030488 C0.350403912,30.7773231 0.338408182,30.7525413 0.327007141,30.7286152 C0.214371452,30.5729786 0.116090498,30.4306633 0.0728658537,30.3310976 C0.00670731707,30.1785061 0.0699695122,30.1266768 0.211128049,30.0143293 C0.267038694,29.9698302 0.335146004,29.9158368 0.40739847,29.854149 C0.473956343,29.7827705 0.551063522,29.7120927 0.631792132,29.6444176 C0.668684,29.6059554 0.70452951,29.5659684 0.738262195,29.5246951 C0.905335366,29.3202744 1.02042683,29.0839939 1.09237805,28.8766768 C1.16448171,28.6693598 1.19329268,28.4907012 1.21051829,28.3208841 C1.22789634,28.1509146 1.23353659,27.9896341 1.28262195,27.848628 C1.31806211,27.7463926 1.37613158,27.6547121 1.43719771,27.5495526 C1.46114781,27.4987287 1.48627416,27.4458717 1.51189024,27.3896341 C1.59161585,27.214939 1.67621951,27.007622 1.74359756,26.8341463 C1.81112805,26.6608232 1.86158537,26.5213415 1.90960366,26.3257622 C1.95762195,26.1303354 2.00320122,25.8786585 2.01981707,25.6632622 C2.03628049,25.4478659 2.02362805,25.2685976 1.98338415,25.0879573 C1.9429878,24.9073171 1.87484756,24.725 1.80152439,24.5864329 C1.74020103,24.4705432 1.67525236,24.3851488 1.6206791,24.3141977 C1.5726691,24.259871 1.52896854,24.2104811 1.49862805,24.1676829 C1.42942073,24.0704268 1.42942073,24.0070122 1.48125,23.9748476 C1.51307946,23.955001 1.56445608,23.9469401 1.6113712,23.9335766 C1.63880522,23.9141641 1.66421298,23.891679 1.69085366,23.8358232 C1.72713415,23.7599085 1.76570122,23.6221037 1.78658537,23.4743902 C1.80731707,23.3268293 1.81036585,23.1693598 1.79893293,23.0105183 C1.78734756,22.8516768 1.76097561,22.6914634 1.73536585,22.579878 C1.7097561,22.4682927 1.6847561,22.4053354 1.59969512,22.3088415 C1.51463415,22.2123476 1.36935976,22.0820122 1.26905488,21.9917683 C1.25438867,21.9785732 1.24068387,21.9662352 1.22783994,21.9546385 C1.16310608,21.9017851 1.10206781,21.8485106 1.05792683,21.8010671 C0.974390244,21.7112805 0.951371951,21.6422256 0.931097561,21.5153963 C0.911128049,21.3887195 0.89375,21.2044207 0.916768293,21.0373476 C0.939786585,20.8704268 1.00320122,20.7205793 1.09527439,20.5685976 C1.1875,20.4164634 1.30838415,20.2618902 1.42073171,20.189939 C1.50633573,20.1351153 1.58689509,20.1280831 1.66119595,20.1225143 C1.72720023,20.098661 1.78854938,20.0786219 1.84192073,20.0428354 C1.92134146,19.989939 1.98338415,19.902439 2.02164634,19.8271341 C2.05222909,19.7670653 2.06761917,19.7147875 2.08704364,19.6370621 C2.0876611,19.6334638 2.08827051,19.6298495 2.08887195,19.6262195 C2.11478659,19.4707317 2.12637195,19.2864329 2.21570122,19.1193598 C2.274502,19.0093842 2.36692238,18.9068724 2.46348464,18.7987375 C2.51451713,18.7361913 2.57134056,18.665904 2.64512195,18.5637195 C2.72547999,18.4525938 2.82579801,18.3037446 2.91795599,18.1694057 C2.94869467,18.1208834 2.98029311,18.071651 3.01341463,18.0219512 C3.15731707,17.8060976 3.33018293,17.58125 3.57789634,17.4172256 C3.80308528,17.2679773 4.09012891,17.1687419 4.30480752,17.0999361 C4.34528747,17.0834934 4.38308485,17.0681015 4.41814024,17.0527439 C4.54618902,16.9967988 4.63765244,16.941311 4.69786585,16.8820122 C4.75838415,16.8227134 4.78765244,16.7594512 4.83353659,16.6018293 C4.852355,16.5369057 4.87398697,16.4559785 4.89699855,16.3709546 C4.92143923,16.2560046 4.94507605,16.1405077 4.97179878,16.0434451 C5.03521341,15.8129573 5.11585366,15.6862805 5.23094512,15.5710366 C5.26168251,15.5403399 5.2948815,15.5104564 5.32824563,15.4799662 C5.35300335,15.4530247 5.37697364,15.4268632 5.39893293,15.401372 C5.46432927,15.3253049 5.51189024,15.2553354 5.56722561,15.1300305 C5.57439245,15.113846 5.58168899,15.096741 5.58905544,15.0789729 C5.62040068,14.9298142 5.62954311,14.7590815 5.74939024,14.64375 C5.7521415,14.6411079 5.75495093,14.6384949 5.75781658,14.6359103 C5.78806136,14.5678147 5.82112059,14.5292427 5.90396341,14.4940549 C6.01234756,14.4480183 6.20640244,14.407622 6.33414634,14.3646341 C6.46189024,14.3216463 6.52362805,14.2760671 6.58765244,14.1809451 C6.65152439,14.0858232 6.71783537,13.941311 6.79710366,13.7643293 C6.80723775,13.7417224 6.81758612,13.7185849 6.82808091,13.6951075 C6.87908544,13.577571 6.93414141,13.4519406 6.98780488,13.3304878 C7.0972561,13.0827744 7.20091463,12.852439 7.41981707,12.7027439 C7.63871951,12.5528963 7.97286585,12.4838415 8.25503049,12.4146341 C8.45501649,12.3656911 8.62904338,12.3166714 8.79035387,12.2707773 C9.02238001,12.1996135 9.2170898,12.1395939 9.3714939,12.0830793 C9.57515244,12.0082317 9.70884146,11.9394817 9.84817073,11.8487805 C9.98549668,11.7591351 10.128017,11.6482668 10.2619666,11.5448775 C10.3337701,11.4843746 10.4024832,11.4264527 10.4731707,11.3721037 C10.6003049,11.2742378 10.733689,11.1878049 10.8487805,11.1301829 C10.8987155,11.1052154 10.9452448,11.0856571 10.989162,11.0668203 C11.0265308,11.0459143 11.06096,11.0264136 11.0907012,11.008689 C11.1963415,10.9455793 11.2428354,10.9050305 11.3060976,10.8230183 C11.3695122,10.7408537 11.45,10.617378 11.5141768,10.520122 C11.5169984,10.5158359 11.5197882,10.5116005 11.5225484,10.5074136 C11.5674818,10.430887 11.6164483,10.352331 11.673628,10.2804878 C11.7185684,10.2240071 11.7686205,10.1716597 11.8200713,10.1190177 C11.8375723,10.0989089 11.855758,10.0778942 11.8746951,10.0556402 C11.9496951,9.96753049 12.0362805,9.85990854 12.0952744,9.77088415 C12.1542683,9.68185976 12.1858232,9.61128049 12.2152439,9.49466463 C12.2445122,9.37820122 12.2717988,9.21585366 12.2859756,9.0402439 C12.2974918,8.89759224 12.3003572,8.74628988 12.3037236,8.58609169 C12.3013651,8.41440526 12.2974729,8.24920548 12.301372,8.11768293 C12.310061,7.82972561 12.3560976,7.70304878 12.4425305,7.58490854 C12.499697,7.50677094 12.574468,7.43250101 12.6451882,7.35949657 C12.6703691,7.33006603 12.694368,7.30210953 12.7153963,7.27682927 C12.7847561,7.19329268 12.8216463,7.13871951 12.8559451,7.03841463 C12.8840821,6.95661806 12.9104906,6.84431695 12.9420632,6.72036265 C12.9534549,6.63402006 12.9735983,6.53794237 13.0289246,6.42869352 C13.0643785,6.33617637 13.1117196,6.24334169 13.1823171,6.15457317 C13.2708719,6.04336225 13.395929,5.93853339 13.5375235,5.83886312 C13.5638358,5.81654701 13.5905457,5.79466193 13.6175305,5.77332317 C13.8652439,5.57759146 14.1359756,5.4277439 14.3835366,5.33841463 C14.4692852,5.30754512 14.5522757,5.28390908 14.6320273,5.26333327 C14.8415007,5.18143465 15.0520518,5.10711237 15.1990854,5.04740854 C15.3244273,4.99661 15.4036106,4.95637269 15.484306,4.91166556 C15.5098436,4.89472319 15.5355445,4.87757851 15.5615854,4.86036585 C15.7315549,4.74801829 15.9158537,4.63292683 16.0626524,4.56966463 C16.1068955,4.55055238 16.1477599,4.53614795 16.1852333,4.52361777 C16.3156112,4.44712301 16.3853924,4.39373522 16.4509146,4.30015244 C16.4913358,4.24229468 16.5301799,4.16907297 16.5742947,4.07740136 C16.5755849,4.07443424 16.5768869,4.07144885 16.5782012,4.06844512 C16.6202541,3.97233557 16.6748266,3.85740512 16.7394759,3.72164325 C16.8166777,3.55530851 16.9050004,3.36718888 16.9835776,3.20109768 C17.1295575,2.88257505 17.2967184,2.51403081 17.4565549,2.28856707 C17.6321646,2.04085366 17.7992378,1.9660061 17.9807927,1.95442073 C18.1621951,1.9429878 18.3580793,1.99481707 18.5278963,2.13597561 C18.5940228,2.1908339 18.6562269,2.25923606 18.717381,2.33099372 C18.7474385,2.35895235 18.7793876,2.38876133 18.814939,2.42073171 C18.9407012,2.53384146 19.1114329,2.67393293 19.2490854,2.75060976 C19.3868902,2.82713415 19.4916159,2.84009146 19.6041159,2.83719512 C19.7025121,2.83465845 19.806638,2.81996104 19.9411742,2.80006677 C20.0712173,2.77196559 20.1999611,2.74015172 20.3135671,2.72347561 C20.5295732,2.69176829 20.6907012,2.71493902 20.8463415,2.72637195 C21.0018293,2.73780488 21.1515244,2.73780488 21.2984756,2.75807927 C21.4454268,2.77820122 21.5893293,2.81859756 21.8082317,2.88765244 C21.8968859,2.91561924 21.9978165,2.94833662 22.0985888,2.9787062 C22.2489981,3.01948441 22.3217878,3.03796436 22.3746951,3.05015244 C22.4330793,3.06356707 22.4676829,3.06920732 22.5583841,3.06478659 C22.593546,3.06313469 22.6370873,3.05995301 22.6855266,3.06326515 C22.7494297,3.04427568 22.8016868,3.00980529 22.8702678,2.96973584 C22.941904,2.92344936 23.0321583,2.86872238 23.1216463,2.80518293 C23.2597561,2.7070122 23.396189,2.58780488 23.517378,2.47530488 C23.5301829,2.46341807 23.5428211,2.45160614 23.5553534,2.43988923 C23.6080284,2.37432144 23.6567524,2.31199761 23.7060976,2.26265244 C23.8126524,2.15609756 23.9222561,2.11006098 24.020122,2.08125 C24.0762135,2.06473708 24.1285493,2.05388272 24.1776461,2.04329118 C24.2478337,2.01542035 24.3208066,1.98706294 24.3945122,1.95533537 C24.4309683,1.93965956 24.4676039,1.92316387 24.5043289,1.90621945 C24.5590432,1.86534111 24.6120544,1.81734954 24.7257622,1.76448171 C24.8495427,1.70685976 25.0452744,1.64344512 25.1922256,1.6089939 C25.2124839,1.60422353 25.2318094,1.6000007 25.2504061,1.5960766 C25.3215736,1.57239895 25.389348,1.5494338 25.4521341,1.52408537 C25.5561964,1.48207266 25.646632,1.43351307 25.7348996,1.38545398 C25.8349515,1.31938123 25.9604403,1.24294861 26.1339939,1.17698171 C26.4219512,1.06753049 26.8425305,0.986890244 27.1333841,0.96097561 C27.2342087,0.951992286 27.319463,0.949585155 27.3940617,0.948712337 C27.4918367,0.938889017 27.5791684,0.930213566 27.6490854,0.92027439 C27.8044207,0.898323171 27.8737805,0.87027439 27.9429878,0.841920732 C27.9442157,0.841419281 27.9454435,0.840917686 27.9466714,0.840416027 C28.0174744,0.805410063 28.0852506,0.771128829 28.15,0.756402439 C28.22154,0.740131606 28.2894337,0.747780979 28.3577995,0.753898003 C28.4044657,0.750902343 28.4503893,0.747860838 28.491311,0.742835366 C28.5629299,0.73404006 28.6192282,0.719082256 28.6860518,0.701232789 C28.7639243,0.669814886 28.8447755,0.633536991 28.9275915,0.615396341 C29.0052837,0.598277706 29.0847089,0.597110878 29.1599416,0.596950265 C29.2732767,0.576991175 29.3814233,0.561468441 29.488369,0.548388283 C29.5436559,0.528879887 29.5982229,0.509224891 29.6620427,0.50304878 C29.7341204,0.495971385 29.8180877,0.50613117 29.9013991,0.511807759 C29.9623484,0.509311714 30.0178446,0.507403852 30.0932927,0.498323171 C30.1169119,0.495405917 30.1424841,0.491791725 30.1698058,0.487772083 C30.2548112,0.464302843 30.3444976,0.433841463 30.4742378,0.433841463 C30.5052322,0.433841463 30.5385167,0.435579931 30.5734367,0.438663851 C30.713055,0.430144772 30.8696284,0.433928787 31.0577744,0.473780488 C31.2037354,0.50469688 31.3687627,0.557384803 31.5122415,0.60667996 C31.5553089,0.616561244 31.5957782,0.627612698 31.6347561,0.641158537 C31.6831565,0.65803463 31.7292574,0.678736505 31.7747391,0.698921978 C31.9019783,0.74266239 31.9628852,0.757122773 32.0542683,0.754573171 C32.1580793,0.751676829 32.3010671,0.726676829 32.4631098,0.67195122 C32.625,0.617378049 32.8059451,0.532926829 32.9221037,0.475304878 C32.9554019,0.458786871 32.9833762,0.444473557 33.0086553,0.431973527 C33.0477595,0.403111429 33.0896937,0.376382379 33.1410061,0.356097561 C33.264939,0.307164634 33.4434451,0.295579268 33.5759146,0.324390244 C33.676015,0.346161211 33.7498283,0.390998671 33.8296496,0.43147479 C33.8492878,0.438961291 33.8679829,0.446176779 33.8856707,0.452743902 C33.9728659,0.484908537 34.0356707,0.501371951 34.1275915,0.501219512 C34.2196646,0.501067073 34.3408537,0.48429878 34.4583841,0.467378049 C34.4603588,0.46709376 34.4623324,0.466809429 34.4643049,0.466525143 C34.5203279,0.4453182 34.574452,0.423937283 34.6300305,0.413719512 C34.7394817,0.393597561 34.8545732,0.416615854 34.9669207,0.477134146 C34.9715193,0.479605 34.9761129,0.482138937 34.9807073,0.484727633 C34.989424,0.488213177 34.9984742,0.491881201 35.0079268,0.495731707 C35.1032012,0.534756098 35.2396341,0.592378049 35.3841463,0.626371951 C35.4215877,0.635188664 35.4595931,0.642436464 35.4963805,0.649181843 C35.582728,0.64287703 35.6779321,0.625623752 35.7741803,0.602966325 C35.7792273,0.601288906 35.7843787,0.599590382 35.7896341,0.597865854 C35.9268293,0.552896341 36.1347561,0.490243902 36.2855183,0.438414634 C36.436128,0.386585366 36.5295732,0.345426829 36.6564024,0.286432927 C36.6569061,0.286199273 36.6574102,0.285965333 36.6579149,0.28573111 C36.8046047,0.206675904 36.935678,0.119286445 37.103811,0.0739329268 C37.2853659,0.025 37.5099085,0.025 37.691311,0.0509146341 C37.8728659,0.0768292683 38.011128,0.128658537 38.0945122,0.20929878 C38.156476,0.269114241 38.1884135,0.344781597 38.2172007,0.419814408 C38.2545457,0.482454517 38.2849825,0.543783757 38.302439,0.578810976 C38.3256098,0.625609756 38.3256098,0.625609756 38.3903963,0.618140244 C38.4551829,0.610670732 38.5847561,0.595731707 38.7190549,0.559756098 C38.7539781,0.550390333 38.7892422,0.539609143 38.824035,0.528429229 C38.8685118,0.507045273 38.9121376,0.486215777 38.9528963,0.468445122 C39.1112805,0.399390244 39.2265244,0.376219512 39.3041159,0.459908537 C39.3818598,0.543292683 39.4222561,0.733384146 39.3532012,0.88597561 C39.2854402,1.03585758 39.1121443,1.14963164 38.9668292,1.24630975 C38.9058631,1.29331474 38.8452449,1.34141285 38.7887195,1.39939024 C38.7057927,1.48429878 38.6317073,1.59070122 38.592378,1.67332317 C38.5530488,1.75594512 38.5484756,1.81493902 38.572561,1.89039634 C38.5966463,1.9660061 38.6495427,2.05823171 38.7420732,2.13551829 C38.8047439,2.18777822 38.8856059,2.23320767 38.960812,2.27656667 C39.0117966,2.29772333 39.0602603,2.3178101 39.0996951,2.3375 C39.2091463,2.39222561 39.2495427,2.44405488 39.272561,2.52759146 C39.2955793,2.61112805 39.301372,2.72637195 39.272561,2.82134146 C39.260326,2.86173635 39.2418506,2.89847496 39.2233222,2.93355361 C39.2225551,2.93675225 39.2217929,2.93994817 39.2210366,2.94314024 C39.2001524,3.0304878 39.183689,3.11463415 39.1902439,3.19710366 C39.1937024,3.24157066 39.2038334,3.28550387 39.2129955,3.32856688 C39.2466245,3.40585095 39.2827629,3.47855475 39.2466463,3.56737805 C39.2091463,3.65945122 39.0940549,3.76905488 38.9268293,3.86402439 C38.8507672,3.9072999 38.7639115,3.94760005 38.6771807,3.98763645 C38.5936926,4.03234273 38.5109364,4.07587809 38.4458841,4.11310976 C38.3257622,4.18170732 38.2660061,4.22896341 38.2059451,4.29969512 C38.1460366,4.37042683 38.0858232,4.46493902 38.0565549,4.56128049 C38.027439,4.65777439 38.0294207,4.75625 38.0589939,4.8410061 C38.0885671,4.92591463 38.1458841,4.99710366 38.247561,5.06753049 C38.3490854,5.13795732 38.4948171,5.20746951 38.6028963,5.24862805 C38.6515397,5.26712623 38.6925467,5.27989714 38.7290311,5.29085721 C38.7757544,5.29777385 38.8174542,5.30430851 38.8519817,5.31554878 C38.9116702,5.3347642 38.9499346,5.36794201 38.9824373,5.3968037 C39.003022,5.40710433 39.0236519,5.41664627 39.0445122,5.42439024 C39.0851719,5.43957867 39.1268241,5.44793642 39.1709862,5.4577734 C39.1940151,5.45795604 39.2190905,5.45877377 39.2466463,5.46234756 C39.3358232,5.47393293 39.4510671,5.51417683 39.5057927,5.58628049 C39.526856,5.6139738 39.5389542,5.64636424 39.5517784,5.68099206 C39.5934764,5.73247075 39.6343032,5.78880973 39.6887195,5.83780488 C39.7698171,5.91082317 39.8810976,5.96783537 39.9660061,6.00518293 C40.0509146,6.04268293 40.1096037,6.06067073 40.2056402,6.11768293 C40.2674045,6.1543493 40.3446163,6.2071569 40.3881691,6.26519763 C40.5177205,6.25702766 40.7228589,6.29914112 40.9365854,6.35914634 C41.1782012,6.42713415 41.4306402,6.51783537 41.6080793,6.55609756 C41.7853659,6.59435976 41.8876524,6.58003049 42.1592988,6.60213415 C42.4310976,6.62408537 42.8721037,6.68262195 43.232622,6.725 C43.3367991,6.7372406 43.4342484,6.74813308 43.5252381,6.75864727 C43.6590682,6.76630512 43.7955742,6.77023167 43.9150915,6.78140244 C44.0107045,6.79033897 44.0954859,6.80395275 44.1050479,6.84912708 C44.3039094,6.89947936 44.4393774,6.97282549 44.5535061,7.0757622 C44.6716463,7.18231707 44.7667683,7.32103659 44.8682927,7.51585366 C44.9696646,7.71051829 45.077439,7.96158537 45.1629573,8.11570122 C45.2483232,8.2695122 45.3115854,8.32652439 45.4934451,8.38658537 C45.6753049,8.4464939 45.9760671,8.50960366 46.3490854,8.57667683 C46.7221037,8.64375 47.1675305,8.71478659 47.5894817,8.8367378 C48.0112805,8.95868902 48.4097561,9.13140244 48.7164634,9.31097561 C49.0231707,9.49054878 49.2382622,9.67667683 49.4182927,9.76554878 C49.5981707,9.85426829 49.7431402,9.84573171 49.9568598,9.78094512 C50.1704268,9.71615854 50.4527439,9.59512195 50.6257622,9.49527439 C50.7989329,9.39527439 50.8631098,9.31631098 50.9301829,9.19618902 C50.9971037,9.07591463 51.0670732,8.91432927 51.0532012,8.69375 C51.0393293,8.47301829 50.9419207,8.19314024 50.9016768,7.9625 C50.8615854,7.73185976 50.8789634,7.55045732 51.0510671,7.33155488 C51.2230183,7.11265244 51.55,6.85625 51.8315549,6.68338415 C52.1129573,6.51036585 52.3492378,6.42118902 52.5885671,6.36356707 C52.8282012,6.30594512 53.0708841,6.28018293 53.4132622,6.30746951 C53.7556402,6.33490854 54.197561,6.4152439 54.4746951,6.50960366 C54.7521341,6.60411585 54.8646341,6.71265244 54.9734756,6.83033537 C55.0824695,6.94786585 55.1876524,7.07469512 55.39375,7.16097561 C55.5998476,7.24710366 55.9068598,7.29283537 56.1810976,7.33262195 C56.3801267,7.36160786 56.5619733,7.38754265 56.7234323,7.4343181 C56.7961491,7.4305757 56.8693175,7.43557663 56.9384146,7.4410061 C57.1227134,7.45533537 57.2782012,7.47256098 57.3876524,7.5589939 C57.4483856,7.60695451 57.4949441,7.67617716 57.5425638,7.74402939 C57.5800862,7.78235633 57.6171896,7.82146595 57.6512195,7.8527439 C57.7285061,7.92362805 57.7902439,7.95426829 58.0478659,7.96844512 C58.3054878,7.98277439 58.7591463,7.98064024 59.1786585,8.02164634 C59.5981707,8.06265244 59.9835366,8.14679878 60.3998476,8.24496951 C60.437149,8.25376561 60.474699,8.26267553 60.5124098,8.27167722 C60.671695,8.29940643 60.8137875,8.3322187 60.9272866,8.35960366 C61.1891768,8.42301829 61.2987805,8.45746951 61.4484756,8.49786585 C61.5928623,8.53679004 61.7744716,8.58095087 61.9498006,8.6407127 C62.1502237,8.69409206 62.3181003,8.73418782 62.4679878,8.74908537 C62.6935976,8.7714939 62.878811,8.73689024 63.0667683,8.65320122 C63.2544207,8.56920732 63.4448171,8.43628049 63.6074695,8.3367378 C63.7699695,8.23719512 63.9047256,8.17118902 64.11875,8.08323171 C64.332622,7.99527439 64.6257622,7.88521341 64.9278963,7.8535061 C65.229878,7.82195122 65.5408537,7.86905488 65.7689024,7.91128049 C65.9969512,7.9535061 66.1419207,7.9910061 66.2623476,8.07515244 C66.3829268,8.15914634 66.4789634,8.28993902 66.5435976,8.3714939 C66.6083841,8.45304878 66.6420732,8.48551829 66.6920732,8.45716463 C66.7419207,8.42881098 66.8082317,8.33948171 66.8964939,8.27362805 C66.9847561,8.20792683 67.0952744,8.16570122 67.1969512,8.1339939 C67.298628,8.10228659 67.3917683,8.08125 67.4778963,8.04695122 C67.5641768,8.0125 67.6432927,7.96478659 67.7227134,7.93856707 C67.8018293,7.91219512 67.88125,7.90716463 67.9917683,7.91463415 C68.102439,7.92210366 68.2445122,7.94222561 68.3987805,7.93765244 C68.5532012,7.93307927 68.7199695,7.90396341 68.8821646,7.86021341 C69.0445122,7.81661585 69.2021341,7.75838415 69.3012195,7.7507622 C69.4004573,7.74329268 69.4410061,7.78643293 69.4908537,7.87560976 C69.5408537,7.96493902 69.6001524,8.10030488 69.6556402,8.18871951 C69.7114329,8.27713415 69.7634146,8.31844512 69.833689,8.38978659 C69.903811,8.46082317 69.9920732,8.56189024 70.0466463,8.64542683 C70.1012195,8.72881098 70.1222561,8.79481707 70.141311,8.88963415 C70.1603659,8.98460366 70.1777439,9.10838415 70.2065549,9.26082317 C70.2353659,9.41341463 70.2759146,9.5945122 70.2902439,9.7097561 C70.3045732,9.825 70.2929878,9.8742378 70.2580793,9.94344512 C70.2228659,10.0128049 70.1641768,10.1019817 70.1277439,10.1980183 C70.091311,10.2940549 70.0768293,10.3967988 70.0727134,10.4800305 C70.0682927,10.5632622 70.0742378,10.6269817 70.0702744,10.7195122 C70.0664634,10.8120427 70.0527439,10.9335366 70.0262195,11.0445122 C69.9996951,11.1556402 69.9603659,11.2564024 69.9364329,11.3943598 C69.9126524,11.5321646 69.9039634,11.7070122 69.8967988,11.8410061 C69.8897866,11.975 69.8839939,12.0681402 69.8647866,12.1320122 C69.8457317,12.1958841 69.8131098,12.2304878 69.7222561,12.2422256 C69.6315549,12.2539634 69.4824695,12.2428354 69.298628,12.1579268 C69.1147866,12.0728659 68.8960366,11.9140244 68.7333841,11.8001524 C68.5707317,11.686128 68.4641768,11.6169207 68.3955793,11.5728659 C68.3269817,11.528811 68.2963415,11.5097561 68.2690549,11.4176829 C68.2416159,11.3254573 68.2175305,11.1602134 68.1907012,11.0425305 C68.1637195,10.9248476 68.1339939,10.854878 68.077439,10.7314024 C68.0207317,10.6080793 67.9371951,10.4314024 67.8239329,10.2835366 C67.7105183,10.1356707 67.5675305,10.0166159 67.4643293,9.93506098 C67.361128,9.85335366 67.2977134,9.80929878 67.2210366,9.80259146 C67.1442073,9.79573171 67.0539634,9.82652439 66.9925305,9.89847561 C66.9309451,9.97042683 66.8984756,10.083689 66.9291159,10.2060976 C66.9599085,10.3285061 67.0539634,10.460061 67.128811,10.5681402 C67.2036585,10.6760671 67.2594512,10.7605183 67.3349085,10.8823171 C67.4103659,11.0041159 67.5056402,11.1631098 67.601372,11.2984756 C67.625787,11.3329599 67.6502317,11.3658974 67.6742384,11.3971844 C67.7138374,11.4288779 67.7472214,11.4625734 67.7757622,11.4960366 C67.8172251,11.5445144 67.8484459,11.592529 67.8746901,11.6418884 C67.9357672,11.7143988 67.9762851,11.7626487 68.0501524,11.8178354 C68.1291159,11.8771341 68.246189,11.9442073 68.338872,12.0243902 C68.4315549,12.1045732 68.4995427,12.1977134 68.5490854,12.297561 C68.598628,12.3974085 68.6292683,12.5039634 68.6884146,12.6214939 C68.7472561,12.7391768 68.8347561,12.8678354 68.935061,12.9873476 C69.0353659,13.1068598 69.148628,13.2172256 69.2463415,13.3577744 C69.3439024,13.4984756 69.4262195,13.6692073 69.477439,13.8070122 C69.528811,13.9448171 69.5493902,14.0495427 69.6009146,14.1881098 C69.652439,14.3266768 69.7349085,14.4992378 69.885061,14.7487805 C70.0353659,14.9984756 70.2533537,15.3251524 70.4243902,15.5775915 C70.4558899,15.6241806 70.4857942,15.6682524 70.514316,15.7103358 C70.6636358,15.912744 70.7533757,16.0187445 70.8429878,16.1875 C70.8808316,16.2586557 70.9186526,16.3409686 70.9564597,16.4241739 C71.0179026,16.5373686 71.0758175,16.6453017 71.1320122,16.7341463 C71.210127,16.8579776 71.2850146,16.9449106 71.3650792,17.0344365 C71.3780336,17.0465206 71.3903272,17.0587255 71.4018293,17.0716463 C71.4112625,17.0822666 71.4201581,17.0933704 71.428248,17.1049609 C71.5216461,17.2097174 71.6222026,17.3247284 71.7047256,17.408689 C71.792378,17.4978659 71.860061,17.5518293 71.8568598,17.6289634 C71.8536585,17.7057927 71.7795732,17.8057927 71.7591463,17.9539634 C71.7387195,18.1021341 71.7721037,18.2984756 71.8251524,18.4900915 C71.8782012,18.6817073 71.9509146,18.8689024 72.0089939,19.0056402 C72.0670732,19.142378 72.1102134,19.228811 72.198628,19.2977134 C72.2870427,19.3666159 72.4208841,19.4181402 72.5678354,19.507622 C72.714939,19.5972561 72.8753049,19.7246951 73.0051829,19.810061 C73.1352134,19.8954268 73.2349085,19.9387195 73.311128,19.975 C73.3871951,20.011128 73.439939,20.0403963 73.495122,20.1213415 C73.4964495,20.1232905 73.4977785,20.1252696 73.499104,20.1272772 C73.5882237,20.167827 73.6322445,20.3174557 73.6653963,20.4672256 C73.6698421,20.4872023 73.6740967,20.5071791 73.6783068,20.5270827 C73.727442,20.6257125 73.778908,20.7502463 73.8472561,20.8591463 C73.9242957,20.9821734 74.0230711,21.0853579 74.1074963,21.1721699 C74.1167201,21.1790691 74.1258207,21.1859517 74.1347561,21.1928354 C74.2472561,21.2792683 74.3335366,21.3657012 74.3623476,21.4376524 C74.3911585,21.5097561 74.3623476,21.5672256 74.2931402,21.5730183 C74.2487218,21.5767443 74.1875895,21.5590261 74.1320159,21.5420551 C74.104201,21.5526412 74.0796122,21.5665493 74.0646341,21.5876524 C74.0316254,21.6343199 74.0455309,21.7161731 74.0659266,21.810874 C74.0783702,21.8413553 74.0902771,21.8719845 74.1003049,21.901372 C74.1378049,22.0108232 74.1492378,22.1028963 74.1492378,22.1980183 C74.1492378,22.2863233 74.1393532,22.3772642 74.1239956,22.4544198 C74.1241029,22.5202763 74.1294525,22.5960629 74.1527439,22.7060976 C74.1784047,22.8269757 74.225626,22.9891202 74.2718573,23.1460364 C74.3255616,23.2769327 74.363593,23.3928507 74.3911585,23.5112805 C74.4128108,23.6043052 74.4280058,23.6990518 74.439073,23.7929322 C74.4466221,23.8279901 74.4541826,23.8620959 74.4626524,23.8969512 C74.4955793,24.0330793 74.5426829,24.1806402 74.6407012,24.3178354 C74.7385671,24.4550305 74.8875,24.5823171 75.0265244,24.6771341 C75.1160653,24.7381357 75.201631,24.7858239 75.2787564,24.8285611 C75.3630884,24.8663871 75.4446064,24.9034207 75.5085366,24.9455793 C75.6103507,25.0125172 75.6675654,25.0926188 75.72939,25.1782346 C75.7901646,25.2460218 75.8536577,25.3202823 75.9207317,25.3865854 C75.994707,25.4598319 76.0733284,25.5235927 76.16508,25.6040144 C76.2302688,25.6428802 76.292767,25.675136 76.3553354,25.7259146 C76.447561,25.8007622 76.5396341,25.9160061 76.6057927,26.0053354 C76.6721037,26.0946646 76.7123476,26.1580793 76.7757622,26.2615854 C76.8391768,26.3653963 76.9256098,26.5092988 77.0118902,26.6964939 C77.0984756,26.883689 77.1847561,27.1141768 77.2394817,27.301372 C77.2942073,27.4885671 77.3172256,27.632622 77.3344512,27.7621951 C77.3351004,27.7670353 77.3357414,27.7718555 77.3363768,27.7766568 C77.3476837,27.8312119 77.3581517,27.8811153 77.3698171,27.9278963 C77.3995427,28.0469512 77.4373476,28.1460366 77.4945122,28.2559451 C77.5220596,28.3090512 77.5541624,28.3647908 77.5881725,28.4228718 C77.6055621,28.449309 77.6229243,28.4757978 77.6397866,28.5022866 C77.7204268,28.6291159 77.7896341,28.7557927 77.8442073,28.8710366 C77.892181,28.971648 77.9289712,29.0636388 77.9509118,29.1486385 C77.9964635,29.2634191 78.0378617,29.3732471 78.0719512,29.441311 C78.1170732,29.5314024 78.1490854,29.5481707 78.1778963,29.5285061 C78.2065549,29.5088415 78.2318598,29.4527439 78.2405488,29.403811 C78.2431323,29.3889558 78.2442079,29.3747707 78.2452038,29.3611544 C78.2351888,29.3286581 78.2289151,29.2972032 78.2330793,29.2713415 C78.2445122,29.1992378 78.3367378,29.1704268 78.4204268,29.1675305 C78.5036585,29.1647866 78.578811,29.1878049 78.6333841,29.2510671 C78.6881098,29.3144817 78.7227134,29.4181402 78.7457317,29.5074695 C78.7466682,29.5111038 78.7475857,29.5147141 78.7484892,29.5183001 C78.763123,29.5444544 78.7782756,29.569753 78.7943598,29.5928354 C78.8577744,29.6839939 78.9358232,29.7407012 79.0042683,29.7739329 C79.072561,29.8073171 79.1309451,29.8172256 79.2208841,29.828811 C79.2241718,29.8292386 79.2275015,29.8296684 79.2308707,29.8301017 C79.3492415,29.8368593 79.464838,29.8313557 79.5550305,29.867378 C79.6339513,29.899018 79.6935143,29.9623597 79.7432415,30.0188031 C79.7619963,30.0315311 79.7811903,30.0442698 79.8012195,30.0567073 C79.8955793,30.1153963 80.008689,30.1675305 80.0903963,30.2050305 C80.1019255,30.2103317 80.1128271,30.2153375 80.1233018,30.2202144 C80.1680564,30.2342739 80.2176676,30.2547814 80.2721037,30.2879573 C80.4045732,30.3685976 80.5658537,30.5240854 80.6609756,30.6219512 C80.7559451,30.7198171 80.7847561,30.7603659 80.8106707,30.823628 C80.8136618,30.8309297 80.8166142,30.8385401 80.8196125,30.8463925 C80.8604998,30.9096287 80.9023969,30.9752876 80.9870427,31.0474085 C81.0273787,31.081544 81.0773001,31.1171327 81.1293285,31.1536002 C81.1668491,31.1717093 81.2046409,31.1899143 81.2397866,31.2094512 C81.3434451,31.2670732 81.4242378,31.3362805 81.4818598,31.4254573 C81.5138011,31.4751062 81.5386789,31.5309709 81.5633767,31.586142 C81.6163903,31.6690323 81.6687849,31.7521857 81.751372,31.8393293 C81.8049638,31.8957806 81.8712815,31.9538506 81.9349242,32.0098579 C81.9883356,32.0470229 82.0415271,32.0850331 82.0864329,32.1282012 C82.140367,32.1799429 82.1823187,32.2391735 82.2144422,32.2908705 C82.2287109,32.3063324 82.2429682,32.3211604 82.2577744,32.3353659 C82.3216463,32.3964939 82.3955793,32.4460366 82.504878,32.4871951 C82.524194,32.4944857 82.5446209,32.5015199 82.565729,32.50842 C82.5738964,32.5093789 82.5821736,32.5103302 82.5905488,32.5112805 C82.691311,32.5228659 82.8065549,32.5342988 82.9044207,32.5948171 C83.0022866,32.6553354 83.0829268,32.7647866 83.1637195,32.8972561 C83.2442073,33.0297256 83.3248476,33.1852134 83.3797256,33.3147866 C83.4342988,33.4443598 83.4632622,33.5480183 83.4545732,33.6458841 C83.4458841,33.7439024 83.3998476,33.8359756 83.3019817,33.8935976 C83.2039634,33.9512195 83.0541159,33.9743902 82.9045732,34.0088415 C82.9037511,34.0090313 82.9029291,34.0092215 82.902107,34.009412 C82.84591,34.0280949 82.7905821,34.0461 82.7403963,34.0637195 C82.5859756,34.1182927 82.4804878,34.1693598 82.4448171,34.2178354 C82.4091463,34.2661585 82.4431402,34.3120427 82.5434451,34.3367378 C82.6008174,34.3508414 82.6797683,34.3580339 82.7649074,34.3692761 C82.7731947,34.3691767 82.781345,34.369051 82.7893293,34.3689024 C82.9446646,34.3660061 83.0368902,34.3544207 83.154878,34.4234756 C83.2730183,34.4926829 83.4170732,34.642378 83.5841463,34.8065549 C83.6664532,34.8874349 83.7543095,34.9718295 83.8436326,35.0572965 C83.8714474,35.082025 83.9010802,35.110138 83.933689,35.1410061 C84.1050305,35.3032012 84.358689,35.5416159 84.5641768,35.6934451 C84.7696646,35.8452744 84.9271341,35.9106707 85.1310976,35.9198171 C85.3352134,35.928811 85.5856707,35.8818598 85.814939,35.8141768 C85.9678774,35.7690992 86.1113745,35.714716 86.2617072,35.662181 C86.3926395,35.6030929 86.513263,35.5445491 86.6109756,35.4978659 C86.8097561,35.4027439 86.9132622,35.3567073 87.0487805,35.3625 C87.1407232,35.3663309 87.2472234,35.3942132 87.358441,35.4225025 C87.6289406,35.3966288 87.9062805,35.3876954 88.1161585,35.3364329 C88.2540795,35.3026297 88.3627136,35.2505221 88.4623837,35.195037 C88.6007771,35.0941684 88.7638338,34.980963 88.9091463,34.9189024 C89.0847561,34.8440549 89.2347561,34.8440549 89.3757622,34.8670732 C89.4084578,34.8724105 89.4407026,34.8789936 89.4723827,34.8858856 C89.5120721,34.8860513 89.5527889,34.8858214 89.595122,34.8841463 C89.7643861,34.8776069 89.9595945,34.848006 90.1643999,34.8159289 C90.3246197,34.7728599 90.5463004,34.7366828 90.7377569,34.7195447 C90.8084925,34.7066947 90.8859126,34.6923342 90.9717988,34.6760671 C91.3571646,34.6032012 91.9129573,34.4917683 92.2727134,34.4091463 C92.6320122,34.3266768 92.7952744,34.2728659 92.9823171,34.1605183 C93.0465971,34.1219084 93.1136857,34.076385 93.1797096,34.0300426 C93.197326,34.0079293 93.2130079,33.9853631 93.2262195,33.9628049 C93.2838415,33.8647866 93.2955793,33.7669207 93.3876524,33.7266768 C93.479878,33.6862805 93.6525915,33.7036585 93.7935976,33.7439024 C93.9349085,33.7842988 94.0442073,33.847561 94.1047256,33.9195122 C94.1652439,33.9914634 94.1766768,34.0722561 94.1393293,34.170122 C94.1228455,34.2133162 94.0967702,34.2598957 94.0713,34.3073702 C94.0707282,34.3192764 94.070172,34.3313047 94.0696646,34.3434451 C94.0636803,34.4936509 94.0653311,34.6610356 94.0677001,34.8405557 C94.1019872,34.9959067 94.1190097,35.2136295 94.0760671,35.4259146 C94.050051,35.5535304 94.0024974,35.6790144 93.9561565,35.7987657 C93.9155866,35.9525618 93.8649697,36.1256783 93.8080613,36.326672 C93.7987499,36.395195 93.7923836,36.4604232 93.7849085,36.5230183 C93.7676829,36.6699695 93.7448171,36.802439 93.6382622,37.1278963 C93.5315549,37.4533537 93.3414634,37.9717988 93.2033537,38.2914634 C93.0650915,38.611128 92.9786585,38.7321646 92.8778963,38.8271341 C92.8207273,38.8809352 92.7589596,38.9264683 92.7035961,38.9699417 C92.6862163,38.9913822 92.6700306,39.0118402 92.6553354,39.0314024 C92.560061,39.1582317 92.527439,39.247561 92.4939024,39.3708841 C92.4937529,39.3714321 92.4936034,39.3719807 92.4934539,39.37253 C92.491269,39.4672647 92.49865,39.5702002 92.4832317,39.6391768 C92.4660061,39.7170732 92.4198171,39.7516768 92.3911585,39.8091463 C92.3623476,39.8667683 92.3507622,39.9474085 92.2846037,40.0481707 C92.2508126,40.0995175 92.2028107,40.1561291 92.1482429,40.2236939 C92.1321078,40.25229 92.1153195,40.2820708 92.0978659,40.3132622 C91.979878,40.5243902 91.83125,40.8004573 91.7253049,41.0320122 C91.690706,41.1075232 91.6606463,41.1783168 91.6326991,41.2462009 C91.601319,41.361935 91.5709725,41.4752628 91.4925305,41.6379573 C91.377439,41.8769817 91.1585366,42.222561 90.9885671,42.4702744 C90.940678,42.5400875 90.8966683,42.6021299 90.8561584,42.6585929 C90.8083996,42.7298825 90.754634,42.8101655 90.692378,42.9036585 C90.6528389,42.9630782 90.6098652,43.0278388 90.563889,43.0967679 C90.4978989,43.2202502 90.4458328,43.3444924 90.3722561,43.472561 C90.2830793,43.6280488 90.1620427,43.7893293 90.0324695,43.9564024 C89.9028963,44.1233232 89.7644817,44.296189 89.6205793,44.4458841 C89.5512829,44.5180434 89.4806078,44.5848296 89.3999067,44.6636397 C89.1712405,44.9321488 88.9446501,45.1835556 88.7454268,45.4112805 C88.5900976,45.5888317 88.4513678,45.7519135 88.3285525,45.8973353 C88.3088378,45.9216242 88.2892952,45.9457052 88.2699695,45.9695122 C87.9963415,46.3064024 87.7658537,46.5887195 87.5699695,46.7585366 C87.3742378,46.9285061 87.2128049,46.986128 87.0458841,47.0466463 C86.9423344,47.0840603 86.8365595,47.1226454 86.7265271,47.1664664 C86.6748819,47.1930815 86.6240044,47.2195961 86.5746951,47.2458841 C86.2800305,47.4027439 86.0411585,47.5516768 85.8143293,47.7073171 C85.7907676,47.7234999 85.7673342,47.7397567 85.7438838,47.7562095 C85.7051184,47.7934133 85.6686624,47.8282283 85.6318598,47.8588415 C85.5495359,47.9268643 85.4653861,47.9738877 85.3808998,48.0264768 C85.2798434,48.1058868 85.1686499,48.1963264 85.0397866,48.3041159 C85.0148747,48.3249633 84.989301,48.3464606 84.9631615,48.3685307 C84.8627123,48.469085 84.757226,48.5829139 84.6582317,48.6766768 C84.5460366,48.7832317 84.4422256,48.863872 84.2983232,48.9704268 C84.2587155,48.9997549 84.2160476,49.0310462 84.1715813,49.0643611 C84.0824608,49.1462112 83.9964838,49.2267183 83.9166159,49.3035061 C83.7201849,49.4925312 83.5607224,49.6590693 83.4170832,49.8147399 C83.3923443,49.8444505 83.3674372,49.8740925 83.3422256,49.9035061 C83.2472415,50.0143053 83.1480561,50.1218117 83.0531236,50.2162542 C82.8474629,50.4433413 82.6419767,50.6698625 82.4314024,50.9432927 C82.3332516,51.0707863 82.2339698,51.2084311 82.134089,51.343281 C82.100837,51.4032511 82.0656418,51.4661109 82.028811,51.5277439 C81.9309451,51.6920732 81.8214939,51.847561 81.6714939,51.9483232 C81.6228154,51.9809897 81.5698751,52.0079044 81.5158362,52.030662 C81.4910305,52.049101 81.4666985,52.0658362 81.4430171,52.0807499 C81.4174444,52.1651386 81.3506115,52.2643008 81.242378,52.3786585 C81.1022866,52.5266768 80.8925305,52.7006098 80.741311,52.8448171 C80.5902439,52.988872 80.4974085,53.1036585 80.4318598,53.1955793 C80.3661585,53.2875 80.3277439,53.3567073 80.246189,53.4170732 C80.1646341,53.4775915 80.039939,53.5294207 79.923628,53.5832317 C79.8074695,53.6368902 79.7,53.6926829 79.6367378,53.7356707 C79.5734756,53.7785061 79.5544207,53.808689 79.5481707,53.8653963 C79.5419207,53.9221037 79.548628,54.0051829 79.5332317,54.0916159 C79.5181402,54.1778963 79.4809451,54.2675305 79.4210366,54.3484756 C79.3612805,54.4295732 79.278811,54.5021341 79.2210366,54.59375 C79.1634146,54.6853659 79.1304878,54.7960366 79.1009146,54.9248476 C79.0714939,55.0533537 79.0452744,55.2 78.9829268,55.3660061 C78.9204268,55.5318598 78.8213415,55.7172256 78.6980183,55.897561 C78.632436,55.9934244 78.5599731,56.0879548 78.4844441,56.1539714 C78.4589117,56.2132796 78.4136985,56.2847908 78.3644817,56.3727134 C78.2589939,56.561128 78.135061,56.825 78.0306402,57.1150915 C77.9259146,57.4050305 77.8407012,57.7210366 77.8042683,57.98125 C77.7681402,58.2414634 77.7810976,58.446189 77.8589939,58.6167683 C77.9154978,58.7403706 78.006117,58.8459965 78.1144826,58.9610625 C78.1238217,58.9655844 78.1326616,58.9703396 78.1408537,58.9754573 C78.1953601,59.0095538 78.2212161,59.0596303 78.2592316,59.1131011 C78.2927824,59.1487061 78.3271012,59.1857069 78.3612241,59.2230934 C78.4153267,59.2702106 78.4795568,59.3173053 78.5384146,59.3643293 C78.6246951,59.4335366 78.6996951,59.5025915 78.7428354,59.577439 C78.7859756,59.6522866 78.797561,59.7330793 78.7772866,59.8222561 C78.7571646,59.9115854 78.7054878,60.0094512 78.6391768,60.0842988 C78.6319966,60.0924199 78.6246483,60.1002676 78.6172088,60.1078973 C78.5750486,60.1962402 78.5352854,60.2916749 78.5178354,60.3782012 C78.4977985,60.4771906 78.5069669,60.5645977 78.5178409,60.6572296 C78.5403157,60.7059241 78.5629793,60.7553225 78.578811,60.8073171 C78.6074695,60.9022866 78.6132622,61.0059451 78.578811,61.1096037 C78.5584501,61.1706862 78.5241034,61.2316631 78.4951796,61.3032171 C78.4894354,61.3606306 78.4845438,61.4190846 78.4818598,61.4778963 C78.4714939,61.7051829 78.4940549,61.9379573 78.5342988,62.1135671 C78.5730586,62.2833439 78.6284887,62.3999755 78.6876406,62.5228312 C78.7261699,62.580425 78.7662582,62.6423524 78.8004573,62.7108232 C78.8724085,62.854878 78.9184451,63.0277439 78.9214939,63.1745427 C78.9237533,63.2955464 78.8968656,63.3988758 78.8712143,63.484701 C78.8771258,63.6252356 78.899386,63.7106462 79.0172256,63.8117378 C79.0279648,63.8209644 79.0394977,63.8303225 79.0517242,63.8398022 C79.1483396,63.8748206 79.2682504,63.9270043 79.3535061,63.9838415 C79.4484756,64.0471037 79.5001524,64.1164634 79.5693598,64.1509146 C79.6385671,64.1855183 79.7248476,64.1855183 79.7939024,64.2458841 C79.8631098,64.3064024 79.914939,64.427439 79.9839939,64.5224085 C80.0487537,64.6114176 80.1287297,64.6776022 80.1006475,64.7538107 Z M88.2612805,72.2234756 C88.3359756,72.2147866 88.3417683,72.1573171 88.3245427,72.1025915 C88.3073171,72.0478659 88.2669207,71.9960366 88.2295732,71.9353659 C88.1920732,71.875 88.1574695,71.8059451 88.1661585,71.7396341 C88.1748476,71.6734756 88.2266768,71.610061 88.2871951,71.5727134 C88.3477134,71.5352134 88.4167683,71.523628 88.4542683,71.4948171 C88.4916159,71.4660061 88.4974085,71.4199695 88.5809451,71.3797256 C88.6644817,71.3393293 88.8256098,71.304878 88.9178354,71.3364329 C89.0099085,71.3681402 89.0330793,71.4660061 89.1164634,71.4948171 C89.2,71.523628 89.3442073,71.4833841 89.4018293,71.4371951 C89.4594512,71.3911585 89.4304878,71.3393293 89.3844512,71.304878 C89.3384146,71.270122 89.275,71.2528963 89.2403963,71.2010671 C89.2057927,71.1492378 89.2,71.0628049 89.2202744,70.9533537 C89.2403963,70.8439024 89.2865854,70.7114329 89.3786585,70.6164634 C89.4708841,70.5213415 89.6091463,70.4637195 89.6666159,70.4839939 C89.7243902,70.5041159 89.7010671,70.6019817 89.6551829,70.7057927 C89.6091463,70.8094512 89.539939,70.9189024 89.5428354,70.973628 C89.5457317,71.0282012 89.6205793,71.0282012 89.6926829,70.9879573 C89.7644817,70.947561 89.8338415,70.8670732 89.8682927,70.7862805 C89.9028963,70.7057927 89.9028963,70.6251524 89.9487805,70.5560976 C89.9949695,70.4868902 90.0871951,70.4292683 90.1792683,70.3946646 C90.2714939,70.3602134 90.3635671,70.348628 90.4010671,70.311128 C90.4384146,70.2737805 90.421189,70.2103659 90.3693598,70.1614329 C90.3175305,70.1125 90.2310976,70.0778963 90.1707317,70.0347561 C90.1102134,69.9916159 90.0756098,69.9397866 90.1189024,69.8791159 C90.1620427,69.81875 90.2830793,69.7496951 90.3722561,69.7496951 C90.4615854,69.7496951 90.5192073,69.81875 90.545122,69.810061 C90.5710366,69.801372 90.5650915,69.714939 90.5478659,69.6314024 C90.5306402,69.5478659 90.5018293,69.467378 90.4557927,69.4010671 C90.4097561,69.3349085 90.3463415,69.2830793 90.3233232,69.202439 C90.3001524,69.1216463 90.3175305,69.0123476 90.3608232,68.9346037 C90.4039634,68.8567073 90.4731707,68.8106707 90.5509146,68.8452744 C90.6285061,68.879878 90.714939,68.9949695 90.8042683,69.0036585 C90.8935976,69.0123476 90.9856707,68.9143293 91.0347561,68.8222561 C91.083689,68.7300305 91.0894817,68.64375 91.1297256,68.586128 C91.1699695,68.5285061 91.2448171,68.4995427 91.3169207,68.5025915 C91.388872,68.5054878 91.4580793,68.539939 91.5099085,68.5371951 C91.5617378,68.5342988 91.596189,68.4939024 91.6134146,68.3960366 C91.6307927,68.2980183 91.6307927,68.1425305 91.671189,68.01875 C91.7114329,67.8949695 91.7920732,67.8027439 91.8324695,67.7192073 C91.8728659,67.6356707 91.8728659,67.5606707 91.8208841,67.4829268 C91.7690549,67.4053354 91.6653963,67.3245427 91.6278963,67.2525915 C91.5905488,67.1806402 91.6192073,67.1172256 91.7027439,67.0827744 C91.7862805,67.0481707 91.9245427,67.042378 91.9995427,66.9905488 C92.0743902,66.9387195 92.0858232,66.8408537 92.1233232,66.7515244 C92.1606707,66.6623476 92.2240854,66.5815549 92.2875,66.5786585 C92.3507622,66.5757622 92.4141768,66.6507622 92.4286585,66.7428354 C92.4429878,66.835061 92.4083841,66.9445122 92.4285061,66.9992378 C92.4487805,67.053811 92.523628,67.053811 92.5667683,67.1230183 C92.6099085,67.1920732 92.6216463,67.3304878 92.6560976,67.413872 C92.6907012,67.4974085 92.7483232,67.5262195 92.846189,67.5695122 C92.9440549,67.6126524 93.0823171,67.6702744 93.1457317,67.8632622 C93.2089939,68.0560976 93.197561,68.3846037 93.2292683,68.6120427 C93.2608232,68.8394817 93.3356707,68.966311 93.3905488,69.1016768 C93.445122,69.2368902 93.479878,69.3809451 93.4971037,69.5996951 C93.5143293,69.81875 93.5143293,70.1125 93.5864329,70.3890244 C93.6582317,70.6653963 93.802439,70.9246951 93.8426829,71.1724085 C93.8829268,71.4199695 93.8196646,71.6560976 93.7245427,71.8289634 C93.6295732,72.0016768 93.5027439,72.1112805 93.4019817,72.0910061 C93.3012195,72.0708841 93.2262195,71.921189 93.16875,71.7713415 C93.1112805,71.6216463 93.0708841,71.4717988 93.0074695,71.3853659 C92.9440549,71.2990854 92.857622,71.2759146 92.7942073,71.3681402 C92.7309451,71.4602134 92.6907012,71.6676829 92.7396341,71.8980183 C92.7885671,72.1283537 92.9268293,72.3818598 92.9585366,72.5692073 C92.9902439,72.75625 92.9152439,72.8772866 92.875,73.0012195 C92.8346037,73.1248476 92.828811,73.2516768 92.8893293,73.3006098 C92.9498476,73.3495427 93.0765244,73.3207317 93.1571646,73.3352134 C93.2379573,73.3495427 93.2724085,73.4071646 93.2379573,73.4907012 C93.2033537,73.5740854 93.0995427,73.6835366 92.9556402,73.7240854 C92.8117378,73.7643293 92.6272866,73.7355183 92.5178354,73.7670732 C92.4083841,73.7987805 92.3739329,73.8910061 92.3449695,74.2597561 C92.316311,74.6283537 92.2931402,75.2734756 92.1751524,75.7169207 C92.0571646,76.1603659 91.8439024,76.4022866 91.7027439,76.6327744 C91.5617378,76.8632622 91.4925305,77.0820122 91.4493902,77.3239329 C91.40625,77.5658537 91.388872,77.8307927 91.3314024,78.0150915 C91.2737805,78.1993902 91.1757622,78.3032012 91.0778963,78.5393293 C90.979878,78.7754573 90.8820122,79.1442073 90.8272866,79.426372 C90.772561,79.708689 90.761128,79.9044207 90.6977134,80.1349085 C90.6344512,80.3652439 90.5192073,80.6303354 90.3894817,80.9210366 C90.2599085,81.2118902 90.1158537,81.528811 90.0525915,81.7794207 C89.9891768,82.029878 90.0064024,82.2141768 89.9864329,82.4618902 C89.9661585,82.7094512 89.908689,83.0205793 89.8077744,83.2480183 C89.7070122,83.4756098 89.5629573,83.6196646 89.485061,83.7809451 C89.4074695,83.9420732 89.3960366,84.1207317 89.303811,84.3684451 C89.2117378,84.6160061 89.038872,84.9329268 88.8832317,85.1835366 C88.7278963,85.4339939 88.5894817,85.6182927 88.3533537,85.707622 C88.1172256,85.7969512 87.7830793,85.7911585 87.5757622,85.7882622 C87.3684451,85.7853659 87.2876524,85.7853659 87.2128049,85.8689024 C87.1381098,85.952439 87.0689024,86.1193598 86.870122,86.2346037 C86.6714939,86.3498476 86.3431402,86.4132622 86.1126524,86.3960366 C85.8824695,86.3786585 85.75,86.2807927 85.6260671,86.1769817 C85.5022866,86.0734756 85.3870427,85.963872 85.2603659,85.90625 C85.1335366,85.8487805 84.9952744,85.8429878 84.851372,85.8083841 C84.7073171,85.7739329 84.5574695,85.7105183 84.491311,85.6097561 C84.425,85.5088415 84.442378,85.3705793 84.4452744,85.2467988 C84.4480183,85.1230183 84.4365854,85.0134146 84.3617378,84.9012195 C84.2868902,84.788872 84.148628,84.673628 84.0678354,84.5382622 C83.9873476,84.4030488 83.9643293,84.2474085 83.9585366,84.0574695 C83.9527439,83.867378 83.9643293,83.6426829 83.9987805,83.4208841 C84.0333841,83.1990854 84.0910061,82.9803354 84.0678354,82.8074695 C84.0449695,82.6347561 83.9411585,82.5079268 83.8259146,82.2919207 C83.7109756,82.0759146 83.5841463,81.7707317 83.5926829,81.5027439 C83.601372,81.2349085 83.7454268,81.0045732 83.8231707,80.8375 C83.9009146,80.6704268 83.9125,80.5669207 83.9498476,80.4429878 C83.9873476,80.3192073 84.0506098,80.1751524 84.1544207,80.0628049 C84.2579268,79.9506098 84.4021341,79.8698171 84.4769817,79.7431402 C84.5518293,79.6164634 84.5574695,79.4435976 84.5949695,79.2766768 C84.6323171,79.1096037 84.7016768,78.9483232 84.8310976,78.8071646 C84.9608232,78.6660061 85.1509146,78.545122 85.2402439,78.421189 C85.3294207,78.2974085 85.3178354,78.1707317 85.323628,78.0065549 C85.3294207,77.842378 85.352439,77.6407012 85.361128,77.4852134 C85.3696646,77.3297256 85.363872,77.2202744 85.2862805,77.1021341 C85.2083841,76.9841463 85.0585366,76.8574695 85.0068598,76.7134146 C84.9550305,76.5693598 85.0010671,76.4080793 85.0068598,76.2870427 C85.0126524,76.1661585 84.9780488,76.0855183 84.8859756,75.8435976 C84.79375,75.6016768 84.6439024,75.198628 84.6150915,74.867378 C84.5864329,74.536128 84.6785061,74.2769817 84.8167683,74.035061 C84.9550305,73.7931402 85.1393293,73.5684451 85.2286585,73.3870427 C85.3179878,73.2056402 85.3120427,73.0672256 85.3294207,72.9378049 C85.3466463,72.8080793 85.3870427,72.6871951 85.5022866,72.6410061 C85.617378,72.595122 85.8073171,72.6237805 85.939939,72.6179878 C86.0724085,72.6123476 86.1472561,72.5719512 86.2077744,72.491311 C86.2682927,72.4106707 86.3144817,72.2897866 86.4266768,72.2435976 C86.538872,72.197561 86.7175305,72.226372 86.85,72.2379573 C86.9824695,72.2493902 87.0689024,72.24375 87.1292683,72.1917683 C87.189939,72.139939 87.2243902,72.0420732 87.3253049,71.9844512 C87.4260671,71.9269817 87.5929878,71.9096037 87.6996951,71.9440549 C87.80625,71.978811 87.852439,72.0650915 87.9474085,72.1285061 C88.042378,72.1917683 88.1864329,72.2321646 88.2612805,72.2234756 Z" id="Combined-Shape"></path>
                </g>
            </g>
        </g>
    </g>
</svg>